<?xml version="1.0" encoding="utf-8"?>
<!DOCTYPE svg PUBLIC "-//W3C//DTD SVG 1.1//EN" "http://www.w3.org/Graphics/SVG/1.1/DTD/svg11.dtd">
<svg xmlns="http://www.w3.org/2000/svg" xml:space="preserve" width="471.68" height="107.468">
  <path fill="#010101" d="M41.039 40.81h-1.375c-2.266-9.227-7.383-13.68-15.414-13.68-10.703 0-17.352 8.641-17.352 22.406 0 14.625 7.141 24.461 17.844 24.461 7.297 0 12.734-3.586 16.297-10.781l1.227 1.195c-3.086 7.797-10.469 12.656-19.391 12.656C9.57 77.068 0 66.818 0 52.708c0-15.656 10.141-27.031 24.008-27.031 3.328 0 5.602.352 10.148 1.633 1.375.336 1.945.422 2.586.422 1.219 0 2.031-.516 2.523-1.539h1.289l.485 14.617zm52.086 35.063H59.477V74.42h.477c3.648 0 4.789-2.305 4.789-9.328v-27.43l.078-2.234c0-4.961-1.375-7.094-4.625-7.094h-.719V26.88h16.609v1.453h-.484c-3.648 0-4.781 2.219-4.781 9.328v30.687c0 4.102.891 5.039 4.547 5.227l2.672.086h7.375c5.672 0 7.062-1.297 9.172-8.391h1.461l-2.923 10.603zm53.625-8.977c1.859 5.891 2.836 7.172 5.352 7.359l1.219.078.656.086v1.453h-16.312v-1.453c2.594 0 3.977-1.031 3.977-2.906 0-.773-.164-1.273-.891-3.586l-3.734-11.891h-15l-3.164 9.828c-.82 2.648-1.211 4.375-1.211 5.391 0 2.047 1.039 3 3.719 3.164v1.453h-12v-1.453c3.25-.422 5.109-2.211 6.406-6.328l.406-1.453 12.898-40.273h4.859l12.82 40.531zm-17.195-34.625h-.156l-6.492 20.766h13.133l-6.485-20.766zm66.117 5.391h-1.383l-.078-.688c-.891-3.852-1.859-5.82-3.891-7.445-1.789-1.453-3.984-2.312-6.336-2.312-4.859 0-8.352 3.336-8.352 7.789 0 2.391 1.141 5.039 3 6.922 1.141 1.117 2.438 2.133 3.898 3.164 1.055.688 2.836 1.891 5.352 3.508 3.734 2.469 5.594 4.023 7.219 6.078 2.023 2.562 3.078 5.383 3.078 8.453 0 7.703-5.914 13.938-13.219 13.938-2.516 0-3.891-.344-7.711-1.617-1.852-.695-2.586-.938-2.914-.938-.812 0-1.375.602-1.789 1.875h-1.375V63.13h1.375l.086.953c.648 4.609 1.547 6.398 4.219 8.547 1.945 1.703 4.383 2.562 6.891 2.562 5.594 0 9.328-3.586 9.328-8.891 0-3-1.047-5.055-3.891-7.445-1.703-1.539-3.492-2.898-5.438-4.18-3-2.055-4.945-3.344-6-4.109-1.133-.852-2.266-1.969-3.32-3.25-2.023-2.656-3-5.562-3-8.984 0-7.516 5.188-12.656 12.648-12.656 2.352 0 3.727.258 6.484 1.203 1.625.602 2.188.68 2.68.68.648 0 .891-.25 1.133-1.031 0-.078.078-.164.078-.336h1.227v11.469zm44.851 0h-1.375l-.078-.688c-.891-3.852-1.867-5.82-3.891-7.445-1.781-1.453-3.977-2.312-6.328-2.312-4.875 0-8.352 3.336-8.352 7.789 0 2.391 1.133 5.039 3 6.922 1.133 1.117 2.438 2.133 3.891 3.164 1.055.688 2.844 1.891 5.352 3.508 3.734 2.469 5.609 4.023 7.219 6.078 2.031 2.562 3.086 5.383 3.086 8.453 0 7.703-5.922 13.938-13.227 13.938-2.508 0-3.883-.344-7.695-1.617-1.867-.695-2.602-.938-2.922-.938-.812 0-1.383.602-1.789 1.875h-1.375V63.13h1.375l.086.953c.648 4.609 1.539 6.398 4.211 8.547 1.945 1.703 4.375 2.562 6.906 2.562 5.586 0 9.32-3.586 9.32-8.891 0-3-1.055-5.055-3.891-7.445-1.695-1.539-3.492-2.898-5.43-4.18-3-2.055-4.961-3.344-6.016-4.109-1.125-.852-2.266-1.969-3.328-3.25-2.023-2.656-3-5.562-3-8.984 0-7.516 5.203-12.656 12.664-12.656 2.352 0 3.734.258 6.477 1.203 1.625.602 2.203.68 2.672.68.664 0 .906-.25 1.148-1.031 0-.078.078-.164.078-.336h1.211v11.469zm34.907 38.211h-16.727V74.42h.656c3.328 0 4.695-2.211 4.695-7.781V36.115c0-5.562-1.367-7.781-4.695-7.781h-.656V26.88h16.727v1.453h-.578c-3.406 0-4.711 2.219-4.711 7.781v30.524c0 5.57 1.305 7.781 4.711 7.781h.578v1.454zm59.187-35.063h-1.383c-2.258-9.227-7.367-13.68-15.398-13.68-10.711 0-17.367 8.641-17.367 22.406 0 14.625 7.148 24.461 17.836 24.461 7.312 0 12.734-3.586 16.312-10.781l1.219 1.195c-3.07 7.797-10.469 12.656-19.383 12.656-13.312 0-22.875-10.25-22.875-24.359 0-15.656 10.148-27.031 24-27.031 3.336 0 5.602.352 10.148 1.633 1.383.336 1.945.422 2.602.422 1.211 0 2.023-.516 2.508-1.539h1.289l.492 14.617zm134.235-12.141c-3.641.344-5.281 2.234-5.281 6.414 0 .25.094.609.094.859l2.016 30.109c.406 5.883 1.875 7.945 6 8.367v1.453h-16.617v-1.453c3-.258 4.617-2.055 4.617-5.211 0-.859-.07-1.969-.156-3.25l-1.953-30.531h-.156l-15.805 40.445h-1.312l-15.492-40.445h-.164l-2.258 30.109c-.086.422-.086.844-.086 1.281 0 4.602 1.617 6.758 5.68 7.602v1.453h-14.445v-1.453c4.219-.516 5.766-2.906 6.258-9.328l2.594-33.336c-1.867-2.055-3.414-2.906-6.25-3.422V26.88h11.844l14.828 38.656 15.094-38.406h10.953v1.539z"/>
  <path fill="#E41E26" d="M428.57 12.49c-2.047 9.734-11.875 7.539-13.445 3.672-3.102-7.609 2.883-11.688 6.633-10.836-1.617-3.945-6.773-3.648-9.266-2.109-7.305 4.961-9.203 15.242-11.289 23.281-.023-.023 9.562-.047 9.516-.023v1.969h-9.961c-7.328 28.359-17.18 63.461-36.727 77.336-3.75 2.32-7.875 1.883-10.445.867-2.656-.922-5.516-5.086-5.023-9.516.398-2.719 2.805-6.703 6.914-6.703 4.734 0 6.391 3.234 6.797 5.906.398 2.672-.328 6.453-4.242 7.281.805.898 3.023 1.672 6.234-1.398 9.867-11.102 13.43-49.539 23.203-73.797-.008-.023-9.773-.07-9.844.023v-1.969h10.547c4.945-11.57 12.727-23.43 25.289-26.164 14.047-2.328 15.609 9.125 15.109 12.18"/>
</svg>