<?xml version="1.0" encoding="UTF-8"?>
<svg xmlns="http://www.w3.org/2000/svg" version="1.1" viewBox="0 0 124 32">
  <defs>
    <style>
      .cls-1 {
        fill: #ff3700;
      }

      .cls-2 {
        fill: #6e00f5;
      }
    </style>
  </defs>
  <!-- Generator: Adobe Illustrator 28.7.1, SVG Export Plug-In . SVG Version: 1.2.0 Build 142)  -->
  <g>
    <g id="Layer_1">
      <g>
        <g>
          <path class="cls-1" d="M108.1,0h-1.7v8.5l11.1,7.4-11.1,7.4v8.5h1.7c8.8,0,15.9-7.1,15.9-15.9S116.9,0,108.1,0Z"/>
          <polygon class="cls-1" points="94.3 .5 94.3 31.5 106.4 23.4 106.4 8.6 94.3 .5"/>
        </g>
        <g>
          <g>
            <path class="cls-2" d="M0,17.5h4.7c2.9,0,4.8,1.7,4.8,4.3s-1.9,4.3-4.8,4.3h-2v3.4H0v-12ZM4.5,23.8c1.4,0,2.2-.7,2.2-2s-.8-2-2.2-2h-1.8v3.9h1.8Z"/>
            <path class="cls-2" d="M11,17.5h5.1c2.7,0,4.5,1.6,4.5,4.1s-.8,3.1-2.3,3.7l2.5,4.2h-3.2l-2.1-3.7h-1.8v3.7h-2.7v-12h0ZM15.8,23.5c1.3,0,2.1-.7,2.1-1.8s-.8-1.8-2.1-1.8h-2.1v3.6h2.1Z"/>
            <path class="cls-2" d="M22,27.6l5.5-7.6h-5.3v-2.5h8.8v2l-5.5,7.6h5.6v2.5h-9.2v-2h0Z"/>
            <path class="cls-2" d="M33,17.5h7.9v2.3h-5.2v2.5h4.7v2.3h-4.7v2.6h5.4v2.3h-8.1v-12Z"/>
            <path class="cls-2" d="M43.2,17.5h5.4c2.4,0,4,1.3,4,3.2s-.5,2.1-1.4,2.6c1.1.5,1.8,1.5,1.8,2.8,0,2-1.6,3.4-4.1,3.4h-5.7v-12h0ZM48.1,22.4c1,0,1.6-.5,1.6-1.4s-.6-1.4-1.6-1.4h-2.3v2.7h2.3ZM48.4,27.4c1.1,0,1.7-.5,1.7-1.4s-.6-1.4-1.7-1.4h-2.5v2.9h2.5Z"/>
            <path class="cls-2" d="M54.2,23.5c0-3.7,2.6-6.2,6.4-6.2s6.4,2.6,6.4,6.2-2.7,6.2-6.4,6.2-6.4-2.6-6.4-6.2ZM60.6,27.2c2.1,0,3.6-1.5,3.6-3.6s-1.5-3.6-3.6-3.6-3.6,1.5-3.6,3.6,1.5,3.6,3.6,3.6Z"/>
            <path class="cls-2" d="M67.5,27h1.8c1.5,0,2-.7,2-2v-7.4h2.7v7.6c0,2.8-1.6,4.4-4.5,4.4h-1.9v-2.5h0Z"/>
            <path class="cls-2" d="M76.5,17.5h7.9v2.3h-5.2v2.5h4.7v2.3h-4.7v2.6h5.4v2.3h-8.1v-12Z"/>
          </g>
          <g>
            <path class="cls-2" d="M5,10.5c0-1.2-1-2.1-2.4-2.1H0v6h1.5v-1.8h.8l1.4,1.8h1.8l-1.6-2.1c.7-.4,1.1-1,1.1-1.8ZM1.5,9.7h1c.6,0,1.1.3,1.1.8s-.5.8-1.1.8h-1v-1.6Z"/>
            <path class="cls-2" d="M8.8,8.5l-2.6,6h1.6l.5-1.1h2.5l.5,1.1h1.6l-2.6-6s-1.3,0-1.3,0ZM10.4,12.2h-1.9l.9-2.3,1,2.3Z"/>
            <path class="cls-2" d="M16,8.4h-2.4v6h2.4c1.9,0,3.2-1.3,3.2-3s-1.4-3-3.2-3ZM16,13.1h-.9v-3.3h.9c1,0,1.7.7,1.7,1.6s-.8,1.7-1.7,1.7Z"/>
            <rect class="cls-2" x="20.4" y="8.4" width="1.5" height="6"/>
            <path class="cls-2" d="M26.2,8.3c-1.8,0-3.1,1.4-3.1,3.1s1.4,3.1,3.1,3.1,3.2-1.4,3.2-3.1-1.4-3.1-3.2-3.1ZM26.2,13.2c-.9,0-1.7-.8-1.7-1.8s.7-1.8,1.7-1.8,1.7.8,1.7,1.8c0,1-.7,1.8-1.7,1.8Z"/>
          </g>
          <g>
            <path class="cls-2" d="M31.3,12.5l5.5-7.6h-5.3v-2.5h8.8v2l-5.5,7.6h5.6v2.5h-9.2v-2h0Z"/>
            <path class="cls-2" d="M51.4,8.5c0-3.7,2.6-6.2,6.4-6.2s6.4,2.6,6.4,6.2-2.7,6.2-6.4,6.2-6.4-2.6-6.4-6.2ZM57.8,12.1c2.1,0,3.6-1.5,3.6-3.6s-1.5-3.6-3.6-3.6-3.6,1.5-3.6,3.6,1.5,3.6,3.6,3.6Z"/>
            <path class="cls-2" d="M68.6,5h-3.8v-2.5h10.3v2.6h-3.8v9.5h-2.7V5Z"/>
            <path class="cls-2" d="M76.5,2.5h7.9v2.3h-5.2v2.5h4.7v2.3h-4.7v2.6h5.4v2.3h-8.1V2.5Z"/>
            <polygon class="cls-2" points="45.6 11.9 45.6 8.7 48.7 7.4 48.7 5.1 45.6 6.4 45.6 2.5 42.8 2.5 42.8 7.6 41.2 8.2 41.2 10.5 42.8 9.9 42.8 14.5 50.8 14.5 50.8 11.9 45.6 11.9"/>
          </g>
        </g>
      </g>
    </g>
  </g>
</svg>