<?xml version="1.0" encoding="UTF-8"?>
<svg width="175px" height="86px" viewBox="0 0 175 86" version="1.1" xmlns="http://www.w3.org/2000/svg" xmlns:xlink="http://www.w3.org/1999/xlink">
    <title>logo-actualitati</title>
    <g id="Page-1" stroke="none" stroke-width="1" fill="none" fill-rule="evenodd">
        <g id="logo-actualitati" transform="translate(-0.000000, 0.000000)">
            <g id="Group-2" transform="translate(0.000000, 10.000000)" fill="#EE322D">
                <path d="M44.2583286,0 L26.6539452,0 C24.683193,2.07533196 22.7866574,4.27791056 20.9733648,6.60369621 C7.86009,23.4315583 1.04820758,44.0828786 0.236839374,65.1724929 L0.227813028,65.999596 L9.31433462,65.999596 C11.2911044,47.5468147 17.9525477,29.7514743 29.5092793,14.9282516 C33.9743118,9.19912353 38.9317816,4.22034661 44.2583286,0" id="Fill-4042"></path>
                <path d="M7.56141824,0 C-1.7577825,13.9809712 0.163826264,28.4052857 0.163826264,28.4052857 C3.37319371,18.2720103 8.1471278,8.66085009 14.5016753,0 L7.56141824,0 Z" id="Fill-4043"></path>
                <path d="M37.1379457,17.3221041 C25.5541351,31.3394315 18.4734682,48.2652532 15.7625556,66 L29.8376377,66 C33.477261,52.6593016 39.7415451,40.0881423 48.6926715,29.25905 C51.0134453,26.4495252 53.4545704,23.8308703 56,21.4081348 L56,0.222580616 C49.1540181,4.78528126 42.7934529,10.4841125 37.1379457,17.3221041" id="Fill-4044"></path>
                <path d="M34.1830209,65.999697 L55.9996991,65.999697 L55.9996991,28.4548715 C54.6046272,29.9283067 53.2446578,31.4572861 51.9248054,33.0539283 C43.8261672,42.8529288 37.9299574,54.0708303 34.1830209,65.999697" id="Fill-4045"></path>
            </g>
            <g id="Group-5" transform="translate(65.396705, 17.578000)" fill-rule="nonzero">
                <g id="Radio" transform="translate(1.725000, 0.000000)" fill="#1A1919">
                    <path d="M3.611,7.429 L3.611,2.806 L7.567,2.806 C8.395,2.806 9.016,2.98616667 9.43,3.3465 C9.844,3.70683333 10.051,4.28566667 10.051,5.083 C10.051,5.911 9.844,6.509 9.43,6.877 C9.016,7.245 8.395,7.429 7.567,7.429 L3.611,7.429 Z M0,0 L0,16.422 L3.611,16.422 L3.611,10.005 L7.222,10.005 C8.12666667,10.005 8.77833333,10.2043333 9.177,10.603 C9.57566667,11.0016667 9.83633333,11.6303333 9.959,12.489 C10.051,13.1483333 10.12,13.8383333 10.166,14.559 C10.212,15.2796667 10.3346667,15.9006667 10.534,16.422 L14.145,16.422 C13.9763333,16.192 13.8498333,15.9121667 13.7655,15.5825 C13.6811667,15.2528333 13.6198333,14.904 13.5815,14.536 C13.5431667,14.168 13.5163333,13.8076667 13.501,13.455 C13.4856667,13.1023333 13.4703333,12.7956667 13.455,12.535 C13.4243333,12.121 13.3668333,11.707 13.2825,11.293 C13.1981667,10.879 13.064,10.4995 12.88,10.1545 C12.696,9.8095 12.4583333,9.5105 12.167,9.2575 C11.8756667,9.0045 11.5076667,8.81666667 11.063,8.694 L11.063,8.648 C11.983,8.28 12.6461667,7.74333333 13.0525,7.038 C13.4588333,6.33266667 13.662,5.497 13.662,4.531 C13.662,3.90233333 13.5508333,3.31583333 13.3285,2.7715 C13.1061667,2.22716667 12.7841667,1.748 12.3625,1.334 C11.9408333,0.92 11.4348333,0.594166667 10.8445,0.3565 C10.2541667,0.118833333 9.591,0 8.855,0 L0,0 Z" id="Shape"></path>
                    <path d="M16.023,8.188 C16.069,7.42133333 16.2606667,6.785 16.598,6.279 C16.9353333,5.773 17.3646667,5.36666667 17.886,5.06 C18.4073333,4.75333333 18.9938333,4.53483333 19.6455,4.4045 C20.2971667,4.27416667 20.9526667,4.209 21.612,4.209 C22.21,4.209 22.8156667,4.25116667 23.429,4.3355 C24.0423333,4.41983333 24.602,4.58466667 25.108,4.83 C25.614,5.07533333 26.028,5.4165 26.35,5.8535 C26.672,6.2905 26.833,6.86933333 26.833,7.59 L26.833,13.777 C26.833,14.3136667 26.8636667,14.8273333 26.925,15.318 C26.9863333,15.8086667 27.0936667,16.1766667 27.247,16.422 L23.935,16.422 C23.8736667,16.238 23.8238333,16.0501667 23.7855,15.8585 C23.7471667,15.6668333 23.7203333,15.4713333 23.705,15.272 C23.1836667,15.8086667 22.5703333,16.1843333 21.865,16.399 C21.1596667,16.6136667 20.439,16.721 19.703,16.721 C19.1356667,16.721 18.6066667,16.652 18.116,16.514 C17.6253333,16.376 17.196,16.1613333 16.828,15.87 C16.46,15.5786667 16.1725,15.2106667 15.9655,14.766 C15.7585,14.3213333 15.655,13.7923333 15.655,13.179 C15.655,12.5043333 15.7738333,11.9485 16.0115,11.5115 C16.2491667,11.0745 16.5558333,10.7256667 16.9315,10.465 C17.3071667,10.2043333 17.7365,10.0088333 18.2195,9.8785 C18.7025,9.74816667 19.1893333,9.64466667 19.68,9.568 C20.1706667,9.49133333 20.6536667,9.43 21.129,9.384 C21.6043333,9.338 22.026,9.269 22.394,9.177 C22.762,9.085 23.0533333,8.95083333 23.268,8.7745 C23.4826667,8.59816667 23.5823333,8.34133333 23.567,8.004 C23.567,7.65133333 23.5095,7.3715 23.3945,7.1645 C23.2795,6.9575 23.1261667,6.7965 22.9345,6.6815 C22.7428333,6.5665 22.5205,6.48983333 22.2675,6.4515 C22.0145,6.41316667 21.7423333,6.394 21.451,6.394 C20.807,6.394 20.301,6.532 19.933,6.808 C19.565,7.084 19.3503333,7.544 19.289,8.188 L16.023,8.188 Z M23.567,10.603 C23.429,10.7256667 23.2565,10.8215 23.0495,10.8905 C22.8425,10.9595 22.6201667,11.017 22.3825,11.063 C22.1448333,11.109 21.8956667,11.1473333 21.635,11.178 C21.3743333,11.2086667 21.1136667,11.247 20.853,11.293 C20.6076667,11.339 20.3661667,11.4003333 20.1285,11.477 C19.8908333,11.5536667 19.6838333,11.6571667 19.5075,11.7875 C19.3311667,11.9178333 19.1893333,12.0826667 19.082,12.282 C18.9746667,12.4813333 18.921,12.7343333 18.921,13.041 C18.921,13.3323333 18.9746667,13.5776667 19.082,13.777 C19.1893333,13.9763333 19.335,14.1335 19.519,14.2485 C19.703,14.3635 19.9176667,14.444 20.163,14.49 C20.4083333,14.536 20.6613333,14.559 20.922,14.559 C21.566,14.559 22.0643333,14.4516667 22.417,14.237 C22.7696667,14.0223333 23.0303333,13.7655 23.199,13.4665 C23.3676667,13.1675 23.4711667,12.8646667 23.5095,12.558 C23.5478333,12.2513333 23.567,12.006 23.567,11.822 L23.567,10.603 Z" id="Shape"></path>
                    <path d="M37.704,10.442 C37.704,10.9326667 37.658,11.408 37.566,11.868 C37.474,12.328 37.3206667,12.7381667 37.106,13.0985 C36.8913333,13.4588333 36.6038333,13.7463333 36.2435,13.961 C35.8831667,14.1756667 35.4346667,14.283 34.898,14.283 C34.392,14.283 33.9588333,14.1718333 33.5985,13.9495 C33.2381667,13.7271667 32.9391667,13.4358333 32.7015,13.0755 C32.4638333,12.7151667 32.2913333,12.305 32.184,11.845 C32.0766667,11.385 32.023,10.925 32.023,10.465 C32.023,9.97433333 32.0728333,9.50283333 32.1725,9.0505 C32.2721667,8.59816667 32.4331667,8.19566667 32.6555,7.843 C32.8778333,7.49033333 33.173,7.20666667 33.541,6.992 C33.909,6.77733333 34.3613333,6.67 34.898,6.67 C35.4346667,6.67 35.8793333,6.77733333 36.232,6.992 C36.5846667,7.20666667 36.8721667,7.4865 37.0945,7.8315 C37.3168333,8.1765 37.474,8.57516667 37.566,9.0275 C37.658,9.47983333 37.704,9.95133333 37.704,10.442 Z M37.75,14.904 L37.75,16.422 L40.855,16.422 L40.855,0 L37.589,0 L37.589,5.98 L37.543,5.98 C37.175,5.39733333 36.6728333,4.9565 36.0365,4.6575 C35.4001667,4.3585 34.7293333,4.209 34.024,4.209 C33.15,4.209 32.3833333,4.3815 31.724,4.7265 C31.0646667,5.0715 30.5165,5.52766667 30.0795,6.095 C29.6425,6.66233333 29.3128333,7.31783333 29.0905,8.0615 C28.8681667,8.80516667 28.757,9.57566667 28.757,10.373 C28.757,11.201 28.8681667,11.9983333 29.0905,12.765 C29.3128333,13.5316667 29.6425,14.2101667 30.0795,14.8005 C30.5165,15.3908333 31.0723333,15.8585 31.747,16.2035 C32.4216667,16.5485 33.2036667,16.721 34.093,16.721 C34.875,16.721 35.5765,16.5791667 36.1975,16.2955 C36.8185,16.0118333 37.3206667,15.548 37.704,14.904 L37.75,14.904 Z" id="Shape"></path>
                    <path d="M46.574,2.691 L46.574,0 L43.308,0 L43.308,2.691 L46.574,2.691 Z M43.308,4.531 L43.308,16.422 L46.574,16.422 L46.574,4.531 L43.308,4.531 Z" id="Shape"></path>
                    <path d="M51.948,10.488 C51.948,10.0126667 51.994,9.545 52.086,9.085 C52.178,8.625 52.3351667,8.21866667 52.5575,7.866 C52.7798333,7.51333333 53.075,7.22583333 53.443,7.0035 C53.811,6.78116667 54.271,6.67 54.823,6.67 C55.375,6.67 55.8388333,6.78116667 56.2145,7.0035 C56.5901667,7.22583333 56.8891667,7.51333333 57.1115,7.866 C57.3338333,8.21866667 57.491,8.625 57.583,9.085 C57.675,9.545 57.721,10.0126667 57.721,10.488 C57.721,10.9633333 57.675,11.4271667 57.583,11.8795 C57.491,12.3318333 57.3338333,12.7381667 57.1115,13.0985 C56.8891667,13.4588333 56.5901667,13.7463333 56.2145,13.961 C55.8388333,14.1756667 55.375,14.283 54.823,14.283 C54.271,14.283 53.811,14.1756667 53.443,13.961 C53.075,13.7463333 52.7798333,13.4588333 52.5575,13.0985 C52.3351667,12.7381667 52.178,12.3318333 52.086,11.8795 C51.994,11.4271667 51.948,10.9633333 51.948,10.488 Z M48.682,10.488 C48.682,11.4386667 48.8276667,12.2973333 49.119,13.064 C49.4103333,13.8306667 49.8243333,14.4861667 50.361,15.0305 C50.8976667,15.5748333 51.5416667,15.9926667 52.293,16.284 C53.0443333,16.5753333 53.8876667,16.721 54.823,16.721 C55.7583333,16.721 56.6055,16.5753333 57.3645,16.284 C58.1235,15.9926667 58.7713333,15.5748333 59.308,15.0305 C59.8446667,14.4861667 60.2586667,13.8306667 60.55,13.064 C60.8413333,12.2973333 60.987,11.4386667 60.987,10.488 C60.987,9.53733333 60.8413333,8.67483333 60.55,7.9005 C60.2586667,7.12616667 59.8446667,6.46683333 59.308,5.9225 C58.7713333,5.37816667 58.1235,4.9565 57.3645,4.6575 C56.6055,4.3585 55.7583333,4.209 54.823,4.209 C53.8876667,4.209 53.0443333,4.3585 52.293,4.6575 C51.5416667,4.9565 50.8976667,5.37816667 50.361,5.9225 C49.8243333,6.46683333 49.4103333,7.12616667 49.119,7.9005 C48.8276667,8.67483333 48.682,9.53733333 48.682,10.488 Z" id="Shape"></path>
                </g>
                <g id="România" transform="translate(1.725000, 20.625700)" fill="#1A1919">
                    <path d="M3.611,7.636 L3.611,3.013 L7.567,3.013 C8.395,3.013 9.016,3.19316667 9.43,3.5535 C9.844,3.91383333 10.051,4.49266667 10.051,5.29 C10.051,6.118 9.844,6.716 9.43,7.084 C9.016,7.452 8.395,7.636 7.567,7.636 L3.611,7.636 Z M0,0.207 L0,16.629 L3.611,16.629 L3.611,10.212 L7.222,10.212 C8.12666667,10.212 8.77833333,10.4113333 9.177,10.81 C9.57566667,11.2086667 9.83633333,11.8373333 9.959,12.696 C10.051,13.3553333 10.12,14.0453333 10.166,14.766 C10.212,15.4866667 10.3346667,16.1076667 10.534,16.629 L14.145,16.629 C13.9763333,16.399 13.8498333,16.1191667 13.7655,15.7895 C13.6811667,15.4598333 13.6198333,15.111 13.5815,14.743 C13.5431667,14.375 13.5163333,14.0146667 13.501,13.662 C13.4856667,13.3093333 13.4703333,13.0026667 13.455,12.742 C13.4243333,12.328 13.3668333,11.914 13.2825,11.5 C13.1981667,11.086 13.064,10.7065 12.88,10.3615 C12.696,10.0165 12.4583333,9.7175 12.167,9.4645 C11.8756667,9.2115 11.5076667,9.02366667 11.063,8.901 L11.063,8.855 C11.983,8.487 12.6461667,7.95033333 13.0525,7.245 C13.4588333,6.53966667 13.662,5.704 13.662,4.738 C13.662,4.10933333 13.5508333,3.52283333 13.3285,2.9785 C13.1061667,2.43416667 12.7841667,1.955 12.3625,1.541 C11.9408333,1.127 11.4348333,0.801166667 10.8445,0.5635 C10.2541667,0.325833333 9.591,0.207 8.855,0.207 L0,0.207 Z" id="Shape"></path>
                    <path d="M19.059,10.695 C19.059,10.2196667 19.105,9.752 19.197,9.292 C19.289,8.832 19.4461667,8.42566667 19.6685,8.073 C19.8908333,7.72033333 20.186,7.43283333 20.554,7.2105 C20.922,6.98816667 21.382,6.877 21.934,6.877 C22.486,6.877 22.9498333,6.98816667 23.3255,7.2105 C23.7011667,7.43283333 24.0001667,7.72033333 24.2225,8.073 C24.4448333,8.42566667 24.602,8.832 24.694,9.292 C24.786,9.752 24.832,10.2196667 24.832,10.695 C24.832,11.1703333 24.786,11.6341667 24.694,12.0865 C24.602,12.5388333 24.4448333,12.9451667 24.2225,13.3055 C24.0001667,13.6658333 23.7011667,13.9533333 23.3255,14.168 C22.9498333,14.3826667 22.486,14.49 21.934,14.49 C21.382,14.49 20.922,14.3826667 20.554,14.168 C20.186,13.9533333 19.8908333,13.6658333 19.6685,13.3055 C19.4461667,12.9451667 19.289,12.5388333 19.197,12.0865 C19.105,11.6341667 19.059,11.1703333 19.059,10.695 Z M15.793,10.695 C15.793,11.6456667 15.9386667,12.5043333 16.23,13.271 C16.5213333,14.0376667 16.9353333,14.6931667 17.472,15.2375 C18.0086667,15.7818333 18.6526667,16.1996667 19.404,16.491 C20.1553333,16.7823333 20.9986667,16.928 21.934,16.928 C22.8693333,16.928 23.7165,16.7823333 24.4755,16.491 C25.2345,16.1996667 25.8823333,15.7818333 26.419,15.2375 C26.9556667,14.6931667 27.3696667,14.0376667 27.661,13.271 C27.9523333,12.5043333 28.098,11.6456667 28.098,10.695 C28.098,9.74433333 27.9523333,8.88183333 27.661,8.1075 C27.3696667,7.33316667 26.9556667,6.67383333 26.419,6.1295 C25.8823333,5.58516667 25.2345,5.1635 24.4755,4.8645 C23.7165,4.5655 22.8693333,4.416 21.934,4.416 C20.9986667,4.416 20.1553333,4.5655 19.404,4.8645 C18.6526667,5.1635 18.0086667,5.58516667 17.472,6.1295 C16.9353333,6.67383333 16.5213333,7.33316667 16.23,8.1075 C15.9386667,8.88183333 15.793,9.74433333 15.793,10.695 Z" id="Shape"></path>
                    <path d="M30.206,4.738 L30.206,16.629 L33.472,16.629 L33.472,9.729 C33.472,9.14633333 33.5563333,8.67483333 33.725,8.3145 C33.8936667,7.95416667 34.0968333,7.67816667 34.3345,7.4865 C34.5721667,7.29483333 34.8175,7.1645 35.0705,7.0955 C35.3235,7.0265 35.5266667,6.992 35.68,6.992 C36.2013333,6.992 36.5961667,7.08016667 36.8645,7.2565 C37.1328333,7.43283333 37.3245,7.66666667 37.4395,7.958 C37.5545,8.24933333 37.6196667,8.5675 37.635,8.9125 C37.6503333,9.2575 37.658,9.60633333 37.658,9.959 L37.658,16.629 L40.924,16.629 L40.924,10.005 C40.924,9.637 40.9508333,9.27283333 41.0045,8.9125 C41.0581667,8.55216667 41.1655,8.23016667 41.3265,7.9465 C41.4875,7.66283333 41.7098333,7.43283333 41.9935,7.2565 C42.2771667,7.08016667 42.649,6.992 43.109,6.992 C43.569,6.992 43.9331667,7.06866667 44.2015,7.222 C44.4698333,7.37533333 44.673,7.58233333 44.811,7.843 C44.949,8.10366667 45.0333333,8.41033333 45.064,8.763 C45.0946667,9.11566667 45.11,9.49133333 45.11,9.89 L45.11,16.629 L48.376,16.629 L48.376,8.671 C48.376,7.90433333 48.2686667,7.24883333 48.054,6.7045 C47.8393333,6.16016667 47.5403333,5.71933333 47.157,5.382 C46.7736667,5.04466667 46.3136667,4.79933333 45.777,4.646 C45.2403333,4.49266667 44.6576667,4.416 44.029,4.416 C43.201,4.416 42.4841667,4.61533333 41.8785,5.014 C41.2728333,5.41266667 40.7936667,5.87266667 40.441,6.394 C40.119,5.658 39.6475,5.14433333 39.0265,4.853 C38.4055,4.56166667 37.7193333,4.416 36.968,4.416 C36.186,4.416 35.4921667,4.58466667 34.8865,4.922 C34.2808333,5.25933333 33.7633333,5.73466667 33.334,6.348 L33.288,6.348 L33.288,4.738 L30.206,4.738 Z" id="Path"></path>
                    <path d="M50.714,8.395 C50.76,7.62833333 50.9516667,6.992 51.289,6.486 C51.6263333,5.98 52.0556667,5.57366667 52.577,5.267 C53.0983333,4.96033333 53.6848333,4.74183333 54.3365,4.6115 C54.9881667,4.48116667 55.6436667,4.416 56.303,4.416 C56.901,4.416 57.5066667,4.45816667 58.12,4.5425 C58.7333333,4.62683333 59.293,4.79166667 59.799,5.037 C60.305,5.28233333 60.719,5.6235 61.041,6.0605 C61.363,6.4975 61.524,7.07633333 61.524,7.797 L61.524,13.984 C61.524,14.5206667 61.5546667,15.0343333 61.616,15.525 C61.6773333,16.0156667 61.7846667,16.3836667 61.938,16.629 L58.626,16.629 C58.5646667,16.445 58.5148333,16.2571667 58.4765,16.0655 C58.4381667,15.8738333 58.4113333,15.6783333 58.396,15.479 C57.8746667,16.0156667 57.2613333,16.3913333 56.556,16.606 C55.8506667,16.8206667 55.13,16.928 54.394,16.928 C53.8266667,16.928 53.2976667,16.859 52.807,16.721 C52.3163333,16.583 51.887,16.3683333 51.519,16.077 C51.151,15.7856667 50.8635,15.4176667 50.6565,14.973 C50.4495,14.5283333 50.346,13.9993333 50.346,13.386 C50.346,12.7113333 50.4648333,12.1555 50.7025,11.7185 C50.9401667,11.2815 51.2468333,10.9326667 51.6225,10.672 C51.9981667,10.4113333 52.4275,10.2158333 52.9105,10.0855 C53.3935,9.95516667 53.8803333,9.85166667 54.371,9.775 C54.8616667,9.69833333 55.3446667,9.637 55.82,9.591 C56.2953333,9.545 56.717,9.476 57.085,9.384 C57.453,9.292 57.7443333,9.15783333 57.959,8.9815 C58.1736667,8.80516667 58.2733333,8.54833333 58.258,8.211 C58.258,7.85833333 58.2005,7.5785 58.0855,7.3715 C57.9705,7.1645 57.8171667,7.0035 57.6255,6.8885 C57.4338333,6.7735 57.2115,6.69683333 56.9585,6.6585 C56.7055,6.62016667 56.4333333,6.601 56.142,6.601 C55.498,6.601 54.992,6.739 54.624,7.015 C54.256,7.291 54.0413333,7.751 53.98,8.395 L50.714,8.395 Z M58.258,10.81 C58.12,10.9326667 57.9475,11.0285 57.7405,11.0975 C57.5335,11.1665 57.3111667,11.224 57.0735,11.27 C56.8358333,11.316 56.5866667,11.3543333 56.326,11.385 C56.0653333,11.4156667 55.8046667,11.454 55.544,11.5 C55.2986667,11.546 55.0571667,11.6073333 54.8195,11.684 C54.5818333,11.7606667 54.3748333,11.8641667 54.1985,11.9945 C54.0221667,12.1248333 53.8803333,12.2896667 53.773,12.489 C53.6656667,12.6883333 53.612,12.9413333 53.612,13.248 C53.612,13.5393333 53.6656667,13.7846667 53.773,13.984 C53.8803333,14.1833333 54.026,14.3405 54.21,14.4555 C54.394,14.5705 54.6086667,14.651 54.854,14.697 C55.0993333,14.743 55.3523333,14.766 55.613,14.766 C56.257,14.766 56.7553333,14.6586667 57.108,14.444 C57.4606667,14.2293333 57.7213333,13.9725 57.89,13.6735 C58.0586667,13.3745 58.1621667,13.0716667 58.2005,12.765 C58.2388333,12.4583333 58.258,12.213 58.258,12.029 L58.258,10.81 Z M57.637,-1.42108547e-14 L60.167,3.266 L57.476,3.266 L56.05,1.403 L54.578,3.266 L52.117,3.266 L54.647,-1.42108547e-14 L57.637,-1.42108547e-14 Z" id="Shape"></path>
                    <path d="M63.954,4.738 L63.954,16.629 L67.22,16.629 L67.22,10.396 C67.22,9.18466667 67.4193333,8.3145 67.818,7.7855 C68.2166667,7.2565 68.8606667,6.992 69.75,6.992 C70.532,6.992 71.0763333,7.2335 71.383,7.7165 C71.6896667,8.1995 71.843,8.93166667 71.843,9.913 L71.843,16.629 L75.109,16.629 L75.109,9.315 C75.109,8.579 75.0438333,7.90816667 74.9135,7.3025 C74.7831667,6.69683333 74.557,6.18316667 74.235,5.7615 C73.913,5.33983333 73.4721667,5.01016667 72.9125,4.7725 C72.3528333,4.53483333 71.636,4.416 70.762,4.416 C70.072,4.416 69.3973333,4.57316667 68.738,4.8875 C68.0786667,5.20183333 67.542,5.704 67.128,6.394 L67.059,6.394 L67.059,4.738 L63.954,4.738 Z" id="Path"></path>
                    <path d="M80.851,2.898 L80.851,0.207 L77.585,0.207 L77.585,2.898 L80.851,2.898 Z M77.585,4.738 L77.585,16.629 L80.851,16.629 L80.851,4.738 L77.585,4.738 Z" id="Shape"></path>
                    <path d="M83.189,8.395 C83.235,7.62833333 83.4266667,6.992 83.764,6.486 C84.1013333,5.98 84.5306667,5.57366667 85.052,5.267 C85.5733333,4.96033333 86.1598333,4.74183333 86.8115,4.6115 C87.4631667,4.48116667 88.1186667,4.416 88.778,4.416 C89.376,4.416 89.9816667,4.45816667 90.595,4.5425 C91.2083333,4.62683333 91.768,4.79166667 92.274,5.037 C92.78,5.28233333 93.194,5.6235 93.516,6.0605 C93.838,6.4975 93.999,7.07633333 93.999,7.797 L93.999,13.984 C93.999,14.5206667 94.0296667,15.0343333 94.091,15.525 C94.1523333,16.0156667 94.2596667,16.3836667 94.413,16.629 L91.101,16.629 C91.0396667,16.445 90.9898333,16.2571667 90.9515,16.0655 C90.9131667,15.8738333 90.8863333,15.6783333 90.871,15.479 C90.3496667,16.0156667 89.7363333,16.3913333 89.031,16.606 C88.3256667,16.8206667 87.605,16.928 86.869,16.928 C86.3016667,16.928 85.7726667,16.859 85.282,16.721 C84.7913333,16.583 84.362,16.3683333 83.994,16.077 C83.626,15.7856667 83.3385,15.4176667 83.1315,14.973 C82.9245,14.5283333 82.821,13.9993333 82.821,13.386 C82.821,12.7113333 82.9398333,12.1555 83.1775,11.7185 C83.4151667,11.2815 83.7218333,10.9326667 84.0975,10.672 C84.4731667,10.4113333 84.9025,10.2158333 85.3855,10.0855 C85.8685,9.95516667 86.3553333,9.85166667 86.846,9.775 C87.3366667,9.69833333 87.8196667,9.637 88.295,9.591 C88.7703333,9.545 89.192,9.476 89.56,9.384 C89.928,9.292 90.2193333,9.15783333 90.434,8.9815 C90.6486667,8.80516667 90.7483333,8.54833333 90.733,8.211 C90.733,7.85833333 90.6755,7.5785 90.5605,7.3715 C90.4455,7.1645 90.2921667,7.0035 90.1005,6.8885 C89.9088333,6.7735 89.6865,6.69683333 89.4335,6.6585 C89.1805,6.62016667 88.9083333,6.601 88.617,6.601 C87.973,6.601 87.467,6.739 87.099,7.015 C86.731,7.291 86.5163333,7.751 86.455,8.395 L83.189,8.395 Z M90.733,10.81 C90.595,10.9326667 90.4225,11.0285 90.2155,11.0975 C90.0085,11.1665 89.7861667,11.224 89.5485,11.27 C89.3108333,11.316 89.0616667,11.3543333 88.801,11.385 C88.5403333,11.4156667 88.2796667,11.454 88.019,11.5 C87.7736667,11.546 87.5321667,11.6073333 87.2945,11.684 C87.0568333,11.7606667 86.8498333,11.8641667 86.6735,11.9945 C86.4971667,12.1248333 86.3553333,12.2896667 86.248,12.489 C86.1406667,12.6883333 86.087,12.9413333 86.087,13.248 C86.087,13.5393333 86.1406667,13.7846667 86.248,13.984 C86.3553333,14.1833333 86.501,14.3405 86.685,14.4555 C86.869,14.5705 87.0836667,14.651 87.329,14.697 C87.5743333,14.743 87.8273333,14.766 88.088,14.766 C88.732,14.766 89.2303333,14.6586667 89.583,14.444 C89.9356667,14.2293333 90.1963333,13.9725 90.365,13.6735 C90.5336667,13.3745 90.6371667,13.0716667 90.6755,12.765 C90.7138333,12.4583333 90.733,12.213 90.733,12.029 L90.733,10.81 Z" id="Shape"></path>
                </g>
                <g id="Actualități" transform="translate(0.000000, 41.383748)" fill="#EE322D">
                    <path d="M5.865,10.373 L8.004,4.347 L8.05,4.347 L10.12,10.373 L5.865,10.373 Z M6.21,0.299 L0,16.721 L3.634,16.721 L4.922,13.064 L11.063,13.064 L12.305,16.721 L16.054,16.721 L9.913,0.299 L6.21,0.299 Z" id="Shape"></path>
                    <path d="M25.131,9.016 L28.328,9.016 C28.282,8.24933333 28.098,7.58616667 27.776,7.0265 C27.454,6.46683333 27.0361667,5.99916667 26.5225,5.6235 C26.0088333,5.24783333 25.4261667,4.968 24.7745,4.784 C24.1228333,4.6 23.4443333,4.508 22.739,4.508 C21.773,4.508 20.9143333,4.669 20.163,4.991 C19.4116667,5.313 18.7753333,5.7615 18.254,6.3365 C17.7326667,6.9115 17.3378333,7.59383333 17.0695,8.3835 C16.8011667,9.17316667 16.667,10.028 16.667,10.948 C16.667,11.8373333 16.8126667,12.6538333 17.104,13.3975 C17.3953333,14.1411667 17.8016667,14.7813333 18.323,15.318 C18.8443333,15.8546667 19.4768333,16.2725 20.2205,16.5715 C20.9641667,16.8705 21.7806667,17.02 22.67,17.02 C24.2493333,17.02 25.545,16.606 26.557,15.778 C27.569,14.95 28.1823333,13.7463333 28.397,12.167 L25.246,12.167 C25.1386667,12.903 24.8741667,13.4895 24.4525,13.9265 C24.0308333,14.3635 23.429,14.582 22.647,14.582 C22.141,14.582 21.7116667,14.467 21.359,14.237 C21.0063333,14.007 20.7265,13.7118333 20.5195,13.3515 C20.3125,12.9911667 20.163,12.5886667 20.071,12.144 C19.979,11.6993333 19.933,11.2623333 19.933,10.833 C19.933,10.3883333 19.979,9.93983333 20.071,9.4875 C20.163,9.03516667 20.3201667,8.62116667 20.5425,8.2455 C20.7648333,7.86983333 21.0523333,7.56316667 21.405,7.3255 C21.7576667,7.08783333 22.1946667,6.969 22.716,6.969 C24.1113333,6.969 24.9163333,7.65133333 25.131,9.016 Z" id="Path"></path>
                    <path d="M34.277,4.83 L34.277,1.265 L31.011,1.265 L31.011,4.83 L29.033,4.83 L29.033,7.015 L31.011,7.015 L31.011,14.03 C31.011,14.628 31.1106667,15.111 31.31,15.479 C31.5093333,15.847 31.7815,16.1306667 32.1265,16.33 C32.4715,16.5293333 32.8701667,16.6635 33.3225,16.7325 C33.7748333,16.8015 34.254,16.836 34.76,16.836 C35.082,16.836 35.4116667,16.8283333 35.749,16.813 C36.0863333,16.7976667 36.393,16.767 36.669,16.721 L36.669,14.191 C36.5156667,14.2216667 36.3546667,14.2446667 36.186,14.26 C36.0173333,14.2753333 35.841,14.283 35.657,14.283 C35.105,14.283 34.737,14.191 34.553,14.007 C34.369,13.823 34.277,13.455 34.277,12.903 L34.277,7.015 L36.669,7.015 L36.669,4.83 L34.277,4.83 Z" id="Path"></path>
                    <path d="M49.288,16.721 L49.288,4.83 L46.022,4.83 L46.022,11.063 C46.022,12.2743333 45.8226667,13.1445 45.424,13.6735 C45.0253333,14.2025 44.3813333,14.467 43.492,14.467 C42.71,14.467 42.1656667,14.2255 41.859,13.7425 C41.5523333,13.2595 41.399,12.5273333 41.399,11.546 L41.399,4.83 L38.133,4.83 L38.133,12.144 C38.133,12.88 38.1981667,13.5508333 38.3285,14.1565 C38.4588333,14.7621667 38.685,15.2758333 39.007,15.6975 C39.329,16.1191667 39.7698333,16.445 40.3295,16.675 C40.8891667,16.905 41.606,17.02 42.48,17.02 C43.17,17.02 43.8446667,16.8666667 44.504,16.56 C45.1633333,16.2533333 45.7,15.755 46.114,15.065 L46.183,15.065 L46.183,16.721 L49.288,16.721 Z" id="Path"></path>
                    <path d="M51.534,8.487 C51.58,7.72033333 51.7716667,7.084 52.109,6.578 C52.4463333,6.072 52.8756667,5.66566667 53.397,5.359 C53.9183333,5.05233333 54.5048333,4.83383333 55.1565,4.7035 C55.8081667,4.57316667 56.4636667,4.508 57.123,4.508 C57.721,4.508 58.3266667,4.55016667 58.94,4.6345 C59.5533333,4.71883333 60.113,4.88366667 60.619,5.129 C61.125,5.37433333 61.539,5.7155 61.861,6.1525 C62.183,6.5895 62.344,7.16833333 62.344,7.889 L62.344,14.076 C62.344,14.6126667 62.3746667,15.1263333 62.436,15.617 C62.4973333,16.1076667 62.6046667,16.4756667 62.758,16.721 L59.446,16.721 C59.3846667,16.537 59.3348333,16.3491667 59.2965,16.1575 C59.2581667,15.9658333 59.2313333,15.7703333 59.216,15.571 C58.6946667,16.1076667 58.0813333,16.4833333 57.376,16.698 C56.6706667,16.9126667 55.95,17.02 55.214,17.02 C54.6466667,17.02 54.1176667,16.951 53.627,16.813 C53.1363333,16.675 52.707,16.4603333 52.339,16.169 C51.971,15.8776667 51.6835,15.5096667 51.4765,15.065 C51.2695,14.6203333 51.166,14.0913333 51.166,13.478 C51.166,12.8033333 51.2848333,12.2475 51.5225,11.8105 C51.7601667,11.3735 52.0668333,11.0246667 52.4425,10.764 C52.8181667,10.5033333 53.2475,10.3078333 53.7305,10.1775 C54.2135,10.0471667 54.7003333,9.94366667 55.191,9.867 C55.6816667,9.79033333 56.1646667,9.729 56.64,9.683 C57.1153333,9.637 57.537,9.568 57.905,9.476 C58.273,9.384 58.5643333,9.24983333 58.779,9.0735 C58.9936667,8.89716667 59.0933333,8.64033333 59.078,8.303 C59.078,7.95033333 59.0205,7.6705 58.9055,7.4635 C58.7905,7.2565 58.6371667,7.0955 58.4455,6.9805 C58.2538333,6.8655 58.0315,6.78883333 57.7785,6.7505 C57.5255,6.71216667 57.2533333,6.693 56.962,6.693 C56.318,6.693 55.812,6.831 55.444,7.107 C55.076,7.383 54.8613333,7.843 54.8,8.487 L51.534,8.487 Z M59.078,10.902 C58.94,11.0246667 58.7675,11.1205 58.5605,11.1895 C58.3535,11.2585 58.1311667,11.316 57.8935,11.362 C57.6558333,11.408 57.4066667,11.4463333 57.146,11.477 C56.8853333,11.5076667 56.6246667,11.546 56.364,11.592 C56.1186667,11.638 55.8771667,11.6993333 55.6395,11.776 C55.4018333,11.8526667 55.1948333,11.9561667 55.0185,12.0865 C54.8421667,12.2168333 54.7003333,12.3816667 54.593,12.581 C54.4856667,12.7803333 54.432,13.0333333 54.432,13.34 C54.432,13.6313333 54.4856667,13.8766667 54.593,14.076 C54.7003333,14.2753333 54.846,14.4325 55.03,14.5475 C55.214,14.6625 55.4286667,14.743 55.674,14.789 C55.9193333,14.835 56.1723333,14.858 56.433,14.858 C57.077,14.858 57.5753333,14.7506667 57.928,14.536 C58.2806667,14.3213333 58.5413333,14.0645 58.71,13.7655 C58.8786667,13.4665 58.9821667,13.1636667 59.0205,12.857 C59.0588333,12.5503333 59.078,12.305 59.078,12.121 L59.078,10.902 Z" id="Shape"></path>
                    <polygon id="Path" points="64.866 0.299 64.866 16.721 68.132 16.721 68.132 0.299"></polygon>
                    <path d="M73.966,2.99 L73.966,0.299 L70.7,0.299 L70.7,2.99 L73.966,2.99 Z M70.7,4.83 L70.7,16.721 L73.966,16.721 L73.966,4.83 L70.7,4.83 Z" id="Shape"></path>
                    <path d="M80.582,4.83 L80.582,1.265 L77.316,1.265 L77.316,4.83 L75.338,4.83 L75.338,7.015 L77.316,7.015 L77.316,14.03 C77.316,14.628 77.4156667,15.111 77.615,15.479 C77.8143333,15.847 78.0865,16.1306667 78.4315,16.33 C78.7765,16.5293333 79.1751667,16.6635 79.6275,16.7325 C80.0798333,16.8015 80.559,16.836 81.065,16.836 C81.387,16.836 81.7166667,16.8283333 82.054,16.813 C82.3913333,16.7976667 82.698,16.767 82.974,16.721 L82.974,14.191 C82.8206667,14.2216667 82.6596667,14.2446667 82.491,14.26 C82.3223333,14.2753333 82.146,14.283 81.962,14.283 C81.41,14.283 81.042,14.191 80.858,14.007 C80.674,13.823 80.582,13.455 80.582,12.903 L80.582,7.015 L82.974,7.015 L82.974,4.83 L80.582,4.83 Z" id="Path"></path>
                    <path d="M84.3,8.487 C84.346,7.72033333 84.5376667,7.084 84.875,6.578 C85.2123333,6.072 85.6416667,5.66566667 86.163,5.359 C86.6843333,5.05233333 87.2708333,4.83383333 87.9225,4.7035 C88.5741667,4.57316667 89.2296667,4.508 89.889,4.508 C90.487,4.508 91.0926667,4.55016667 91.706,4.6345 C92.3193333,4.71883333 92.879,4.88366667 93.385,5.129 C93.891,5.37433333 94.305,5.7155 94.627,6.1525 C94.949,6.5895 95.11,7.16833333 95.11,7.889 L95.11,14.076 C95.11,14.6126667 95.1406667,15.1263333 95.202,15.617 C95.2633333,16.1076667 95.3706667,16.4756667 95.524,16.721 L92.212,16.721 C92.1506667,16.537 92.1008333,16.3491667 92.0625,16.1575 C92.0241667,15.9658333 91.9973333,15.7703333 91.982,15.571 C91.4606667,16.1076667 90.8473333,16.4833333 90.142,16.698 C89.4366667,16.9126667 88.716,17.02 87.98,17.02 C87.4126667,17.02 86.8836667,16.951 86.393,16.813 C85.9023333,16.675 85.473,16.4603333 85.105,16.169 C84.737,15.8776667 84.4495,15.5096667 84.2425,15.065 C84.0355,14.6203333 83.932,14.0913333 83.932,13.478 C83.932,12.8033333 84.0508333,12.2475 84.2885,11.8105 C84.5261667,11.3735 84.8328333,11.0246667 85.2085,10.764 C85.5841667,10.5033333 86.0135,10.3078333 86.4965,10.1775 C86.9795,10.0471667 87.4663333,9.94366667 87.957,9.867 C88.4476667,9.79033333 88.9306667,9.729 89.406,9.683 C89.8813333,9.637 90.303,9.568 90.671,9.476 C91.039,9.384 91.3303333,9.24983333 91.545,9.0735 C91.7596667,8.89716667 91.8593333,8.64033333 91.844,8.303 C91.844,7.95033333 91.7865,7.6705 91.6715,7.4635 C91.5565,7.2565 91.4031667,7.0955 91.2115,6.9805 C91.0198333,6.8655 90.7975,6.78883333 90.5445,6.7505 C90.2915,6.71216667 90.0193333,6.693 89.728,6.693 C89.084,6.693 88.578,6.831 88.21,7.107 C87.842,7.383 87.6273333,7.843 87.566,8.487 L84.3,8.487 Z M91.844,10.902 C91.706,11.0246667 91.5335,11.1205 91.3265,11.1895 C91.1195,11.2585 90.8971667,11.316 90.6595,11.362 C90.4218333,11.408 90.1726667,11.4463333 89.912,11.477 C89.6513333,11.5076667 89.3906667,11.546 89.13,11.592 C88.8846667,11.638 88.6431667,11.6993333 88.4055,11.776 C88.1678333,11.8526667 87.9608333,11.9561667 87.7845,12.0865 C87.6081667,12.2168333 87.4663333,12.3816667 87.359,12.581 C87.2516667,12.7803333 87.198,13.0333333 87.198,13.34 C87.198,13.6313333 87.2516667,13.8766667 87.359,14.076 C87.4663333,14.2753333 87.612,14.4325 87.796,14.5475 C87.98,14.6625 88.1946667,14.743 88.44,14.789 C88.6853333,14.835 88.9383333,14.858 89.199,14.858 C89.843,14.858 90.3413333,14.7506667 90.694,14.536 C91.0466667,14.3213333 91.3073333,14.0645 91.476,13.7655 C91.6446667,13.4665 91.7481667,13.1636667 91.7865,12.857 C91.8248333,12.5503333 91.844,12.305 91.844,12.121 L91.844,10.902 Z M87.336,0 C87.382,0.306666667 87.4816667,0.5635 87.635,0.7705 C87.7883333,0.9775 87.9761667,1.14616667 88.1985,1.2765 C88.4208333,1.40683333 88.6546667,1.49883333 88.9,1.5525 C89.1453333,1.60616667 89.383,1.633 89.613,1.633 C90.303,1.633 90.8626667,1.5065 91.292,1.2535 C91.7213333,1.0005 92.005,0.582666667 92.143,0 L93.592,0 C93.4386667,1.196 93.0055,2.05466667 92.2925,2.576 C91.5795,3.09733333 90.648,3.358 89.498,3.358 C87.2593333,3.358 86.048,2.23866667 85.864,0 L87.336,0 Z" id="Shape"></path>
                    <path d="M101.68,4.83 L104.072,4.83 L104.072,7.015 L101.68,7.015 L101.68,12.903 C101.68,13.455 101.772,13.823 101.956,14.007 C102.14,14.191 102.508,14.283 103.06,14.283 C103.244,14.283 103.420333,14.2753333 103.589,14.26 C103.757667,14.2446667 103.918667,14.2216667 104.072,14.191 L104.072,16.744 C103.796,16.79 103.489333,16.8206667 103.152,16.836 C102.814667,16.8513333 102.485,16.859 102.163,16.859 C101.657,16.859 101.177833,16.8245 100.7255,16.7555 C100.273167,16.6865 99.8745,16.5485 99.5295,16.3415 C99.1845,16.1345 98.9123333,15.847 98.713,15.479 C98.5136667,15.111 98.414,14.628 98.414,14.03 L98.414,7.015 L96.436,7.015 L96.436,4.83 L98.414,4.83 L98.414,1.265 L101.68,1.265 L101.68,4.83 Z M99.541,17.871 L102.876,17.871 L102.876,19.55 C102.876,20.0406667 102.7955,20.4278333 102.6345,20.7115 C102.4735,20.9951667 102.255,21.2098333 101.979,21.3555 C101.703,21.5011667 101.373333,21.597 100.99,21.643 C100.606667,21.689 100.200333,21.712 99.771,21.712 L99.771,20.861 C100.139,20.8303333 100.430333,20.7536667 100.645,20.631 C100.859667,20.5083333 101.005333,20.3013333 101.082,20.01 L99.541,20.01 L99.541,17.871 Z" id="Shape"></path>
                    <path d="M108.894,2.99 L108.894,0.299 L105.628,0.299 L105.628,2.99 L108.894,2.99 Z M105.628,4.83 L105.628,16.721 L108.894,16.721 L108.894,4.83 L105.628,4.83 Z" id="Shape"></path>
                </g>
            </g>
            <rect id="Rectangle" fill-opacity="0" fill="#FFFFFF" x="0" y="76" width="10" height="10"></rect>
            <rect id="Rectangle-Copy-35" fill-opacity="0" fill="#FFFFFF" x="0" y="0" width="10" height="10"></rect>
        </g>
    </g>
</svg>