<svg xmlns="http://www.w3.org/2000/svg" id="Calque_1" viewBox="0 0 1492.71 1260.48"><defs><style> .st0 { fill: #fff; } </style></defs><g><path class="st0" d="M397.69,928.91l-29.21-50.52h-16.26v50.52h-26.36v-138.39h49.86c33.17,0,54.04,18.23,54.04,43.93,0,19.99-12.3,34.7-32.29,40.86l30.97,53.59h-30.75ZM352.22,854.23h22.41c18.23,0,27.68-7.69,27.68-19.77s-9.45-19.77-27.68-19.77h-22.41v39.54Z"></path><path class="st0" d="M513.68,821.28h26.36v107.63h-24.16l-1.98-12.3c-9.01,9.22-21.09,14.06-33.61,14.06-29.43,0-52.72-23.07-52.72-55.14s23.29-55.35,52.72-55.35c12.52,0,24.38,4.83,33.39,13.84v-12.74ZM483.14,845.44c-16.48,0-29.87,11.64-29.87,30.09s13.4,29.88,29.87,29.88,30.53-11.64,30.53-29.88-13.62-30.09-30.53-30.09Z"></path><path class="st0" d="M630.54,787.22h26.36v141.68h-24.16l-1.98-12.3c-9.01,9.22-21.09,14.06-33.61,14.06-29.43,0-52.72-23.07-52.72-55.14s23.29-55.35,52.72-55.35c12.52,0,24.38,4.83,33.39,13.84v-46.79ZM600.01,845.44c-16.48,0-29.87,11.64-29.87,30.09s13.4,29.88,29.87,29.88,30.53-11.64,30.53-29.88-13.62-30.09-30.53-30.09Z"></path><path class="st0" d="M677.11,788.76c7.91,0,14.28,6.59,14.28,14.5s-6.37,14.49-14.28,14.49-14.5-6.59-14.5-14.49,6.59-14.5,14.5-14.5ZM663.93,821.28h26.36v107.63h-26.36v-107.63Z"></path><path class="st0" d="M751.79,820.18c30.32,0,55.36,23.07,55.36,55.35s-25.04,55.14-55.36,55.14-55.57-23.07-55.57-55.14,24.82-55.35,55.57-55.35ZM751.79,904.97c15.82,0,29-11.43,29-29.65s-13.18-29.44-29-29.44-29.43,11.43-29.43,29.44,13.18,29.65,29.43,29.65Z"></path><path class="st0" d="M480.28,989.25c-5.93-17.35-19.77-27.67-39.54-27.67-23.28,0-42.4,17.13-42.4,44.37s19.11,44.81,42.4,44.81c20.87,0,36.24-10.98,40.2-28.56h28.56c-3.51,32.95-33.61,54.92-68.75,54.92-38.44,0-69.85-29.65-69.85-70.95s31.41-70.96,69.85-70.96,62.82,20.87,68.31,54.04h-28.77Z"></path><path class="st0" d="M570.78,966.62c30.32,0,55.36,23.07,55.36,55.35s-25.04,55.14-55.36,55.14-55.57-23.07-55.57-55.14,24.82-55.35,55.57-55.35ZM570.78,1051.42c15.82,0,29-11.43,29-29.65s-13.18-29.44-29-29.44-29.43,11.43-29.43,29.44,13.18,29.65,29.43,29.65Z"></path><path class="st0" d="M630.76,967.72h26.14v57.99c0,18.23,7.91,26.14,22.41,26.14,18.67,0,29.43-16.03,29.43-16.03v-68.1h26.36v107.63h-23.06l-2.86-14.28c-9.01,10.33-20.87,16.04-35.36,16.04-25.04,0-43.05-19.11-43.05-45.04v-64.36Z"></path><path class="st0" d="M802.97,992.77h-5.49c-20.43,0-29.43,14.49-29.43,14.49v68.1h-26.36v-107.63h24.17l2.2,14.49c8.34-9.88,20.87-15.6,34.92-15.6v26.14Z"></path><path class="st0" d="M807.58,992.98v-25.26h6.59l2.2-23.5h24.16v23.5h18.01v25.26h-18.01v41.08c0,11.64,3.95,16.03,14.72,16.03h4.39v25.26h-7.91c-24.16,0-37.56-14.72-37.56-41.3v-41.08h-6.59Z"></path><path class="st0" d="M914.56,966.62c30.32,0,55.36,23.07,55.36,55.35s-25.04,55.14-55.36,55.14-55.57-23.07-55.57-55.14,24.82-55.35,55.57-55.35ZM914.56,1051.42c15.82,0,29-11.43,29-29.65s-13.18-29.44-29-29.44-29.43,11.43-29.43,29.44,13.18,29.65,29.43,29.65Z"></path><path class="st0" d="M989.03,935.21c7.91,0,14.28,6.59,14.28,14.5s-6.37,14.49-14.28,14.49-14.5-6.59-14.5-14.49,6.59-14.5,14.5-14.5ZM975.84,967.72h26.36v107.63h-26.36v-107.63Z"></path><path class="st0" d="M1093.81,1045.48c0,19.11-15.37,31.63-40.63,31.63-26.58,0-44.37-17.58-45.03-39.54h26.36c1.1,8.79,8.79,13.84,19.11,13.84,8.13,0,13.84-2.64,13.84-7.47,0-11.86-57.77-3.07-57.77-43.71,0-18.45,16.48-33.61,41.74-33.61s40.64,16.04,41.3,39.76h-26.58c-1.54-9.22-7.03-14.06-15.6-14.06s-14.72,3.07-14.72,8.57c0,15.82,57.99,6.15,57.99,44.59Z"></path><path class="st0" d="M1112.93,935.21c7.91,0,14.28,6.59,14.28,14.5s-6.37,14.49-14.28,14.49-14.5-6.59-14.5-14.49,6.59-14.5,14.5-14.5ZM1099.75,967.72h26.36v107.63h-26.36v-107.63Z"></path><path class="st0" d="M1241.21,1036.7c-3.73,24.16-28.33,40.42-53.82,40.42-30.75,0-55.58-23.07-55.58-55.14s24.82-55.35,55.58-55.35,53.82,19.99,54.7,51.62v10.1h-83.47c2.64,14.28,14.5,23.07,28.77,23.07,10.98,0,21.09-5.28,25.7-14.72h28.12ZM1211.99,1007.48c-4.39-9.45-13.4-15.16-24.6-15.16s-21.31,5.71-26.14,15.16h50.74Z"></path></g><path class="st0" d="M537.94,746.67l-116.86-202.09h-65.02v202.09h-105.44V193.13h199.45c132.68,0,216.15,72.92,216.15,175.73,0,79.95-49.2,138.82-129.16,163.43l123.89,214.39h-123.01ZM356.06,447.94h89.62c72.93,0,110.71-30.76,110.71-79.08s-37.78-79.08-110.71-79.08h-89.62v158.16Z"></path><path class="st0" d="M1133.64,594.2l68.18,36.67c19.41-29.64,32.1-63.9,35.95-101.77l-113.96.59c-15.42,70.21-76.55,114.36-159.83,114.79-92.92.48-169.55-69.25-170.11-177.96-.56-108.7,75.35-177.47,168.27-177.95,78.89-.41,134.33,40.51,158.36,109.64l114.84-.59c-22.6-132.26-126.47-215-273.74-214.24-153.41.79-278.15,119.78-277.3,284.58.32,61.14,17.88,115.77,47.64,160.29l59.43-32.61-47.81,48.63c9.34,11.98,19.61,23.1,30.72,33.27l51.27-46.2-35.93,59.22c11.84,9.32,24.47,17.63,37.76,24.9l39.64-57.22-21.52,66.3c13.63,6.19,27.87,11.26,42.57,15.22l25.48-64.85-5.73,69.48c14.77,2.86,29.97,4.54,45.47,5.05l9.78-68.98,10.51,68.97c15.3-.49,30.32-2.02,44.96-4.54l-6.4-70.4,26.66,66.23c14.83-3.57,29.18-8.2,42.94-13.78l-23.21-69.52,42.83,60.72c13.59-6.73,26.5-14.42,38.53-23.09l-40.13-64.89,57.67,51.09c11.4-9.8,21.81-20.56,31.13-32.16l-54.92-54.93Z"></path></svg>