<svg xmlns="http://www.w3.org/2000/svg" width="65.55" height="18" viewBox="0 0 65.55 18">
  <defs>
    <style>
      .cls-1 {
        fill: #0085CA;
      }
    </style>
  </defs>
  <g id="Layer_2" data-name="Layer 2">
    <g id="slovensko">
      <g>
        <path class="cls-1" d="M3.12,8A3.12,3.12,0,1,0,0,4.87,3.12,3.12,0,0,0,3.12,8"/>
        <path class="cls-1" d="M3.12,18A3.12,3.12,0,1,0,0,14.88,3.12,3.12,0,0,0,3.12,18"/>
        <path class="cls-1" d="M15.25,7.32a.54.54,0,0,1-.54.54.48.48,0,0,1-.48-.29l-1-2.14H11.41V7.32a.54.54,0,0,1-1.08,0V2.43a.54.54,0,0,1,.54-.54h2.28c1.47,0,2.1.73,2.1,1.77a1.61,1.61,0,0,1-1,1.58l.91,1.85a.48.48,0,0,1,.07.23M13.3,2.88H11.41V4.5H13.3a.81.81,0,0,0,.86-.83.79.79,0,0,0-.86-.79"/>
        <path class="cls-1" d="M20.6,6.49H18l-.51,1.08a.47.47,0,0,1-.45.29.49.49,0,0,1-.51-.5.41.41,0,0,1,0-.21L18.83,2.1a.52.52,0,0,1,.92,0L22,7.15a.41.41,0,0,1,.05.21.49.49,0,0,1-.51.5.45.45,0,0,1-.45-.29Zm-1.31-3.2-.92,2.25h1.84Zm.9-2.87a.45.45,0,0,1-.09.25l-.4.54a.38.38,0,0,1-.35.17.43.43,0,0,1-.42-.4A.41.41,0,0,1,19,.71l.42-.54A.38.38,0,0,1,19.79,0a.39.39,0,0,1,.4.42"/>
        <path class="cls-1" d="M25.61,7.79H24a.55.55,0,0,1-.55-.55V2.43A.54.54,0,0,1,24,1.89h1.62a2.83,2.83,0,0,1,2.94,3,2.83,2.83,0,0,1-2.94,3m-.06-4.9h-1v3.9h1a1.8,1.8,0,0,0,1.92-1.95,1.8,1.8,0,0,0-1.92-1.95"/>
        <path class="cls-1" d="M30.73,7.86a.54.54,0,0,1-.55-.55V2.37a.55.55,0,0,1,.55-.55.54.54,0,0,1,.53.55V7.31a.53.53,0,0,1-.53.55"/>
        <path class="cls-1" d="M35.91,7.9a3,3,0,0,1-3-3.06,3,3,0,1,1,6.06,0,3,3,0,0,1-3,3.06m0-5.14A2,2,0,0,0,34,4.84a1.94,1.94,0,1,0,3.88,0,1.94,1.94,0,0,0-1.94-2.08"/>
        <path class="cls-1" d="M12.45,17.94a3.52,3.52,0,0,1-2-.62.69.69,0,0,1-.31-.52.44.44,0,0,1,.46-.46.56.56,0,0,1,.27.08,2.57,2.57,0,0,0,1.64.57c.85,0,1.19-.35,1.19-.74s-.35-.66-1.41-.94c-1.6-.43-2.08-.94-2.08-1.83,0-1.08.93-1.66,2.34-1.66a4.8,4.8,0,0,1,1.13.16c.41.12.92.37.92.73a.45.45,0,0,1-.44.49.41.41,0,0,1-.21,0,3.32,3.32,0,0,0-1.39-.37c-.79,0-1.27.21-1.27.67s.35.59,1.42.9,2.07.7,2.07,1.83-.78,1.76-2.29,1.76"/>
        <path class="cls-1" d="M16.91,17.83a.55.55,0,0,1-.55-.55V12.41a.55.55,0,0,1,.55-.55.54.54,0,0,1,.53.55v4.4H20a.51.51,0,0,1,.51.51.52.52,0,0,1-.51.51Z"/>
        <path class="cls-1" d="M24.33,17.94a3.06,3.06,0,1,1,3-3.06,3,3,0,0,1-3,3.06m0-5.14a2,2,0,0,0-1.94,2.08,1.94,1.94,0,1,0,3.88,0,1.94,1.94,0,0,0-1.94-2.08"/>
        <path class="cls-1" d="M33.56,12.58l-2.19,5a.51.51,0,0,1-.46.29.49.49,0,0,1-.47-.29l-2.19-5a.54.54,0,0,1-.05-.21.52.52,0,0,1,.5-.51.5.5,0,0,1,.47.29l1.73,4.12,1.74-4.12a.5.5,0,0,1,.46-.29.5.5,0,0,1,.5.5.93.93,0,0,1,0,.22"/>
        <path class="cls-1" d="M38.81,17.83H35.48a.55.55,0,0,1-.55-.54V12.47a.55.55,0,0,1,.55-.54h3.19a.5.5,0,0,1,.52.49.51.51,0,0,1-.52.51H36v1.41h1.47a.5.5,0,0,1,.5.5.5.5,0,0,1-.5.5H36v1.49h2.8a.51.51,0,0,1,.51.51.5.5,0,0,1-.51.49"/>
        <path class="cls-1" d="M45.21,17.9a.48.48,0,0,1-.39-.18l-3-3.87V17.4a.51.51,0,0,1-1,0v-5a.51.51,0,0,1,.9-.33l3.06,3.87V12.37a.5.5,0,0,1,.5-.51.51.51,0,0,1,.52.51v5a.5.5,0,0,1-.52.5"/>
        <path class="cls-1" d="M49.76,17.94a3.53,3.53,0,0,1-2-.62.68.68,0,0,1-.3-.52.43.43,0,0,1,.45-.46.53.53,0,0,1,.27.08,2.57,2.57,0,0,0,1.64.57c.85,0,1.19-.35,1.19-.74s-.34-.66-1.41-.94c-1.6-.43-2.08-.94-2.08-1.83,0-1.08.93-1.66,2.34-1.66a4.8,4.8,0,0,1,1.13.16c.41.12.93.37.93.73a.46.46,0,0,1-.45.49.41.41,0,0,1-.21,0,3.28,3.28,0,0,0-1.39-.37c-.79,0-1.27.21-1.27.67s.35.59,1.42.9,2.07.7,2.07,1.83-.78,1.76-2.28,1.76"/>
        <path class="cls-1" d="M54.21,17.9a.55.55,0,0,1-.55-.55V12.41a.55.55,0,0,1,.55-.55.54.54,0,0,1,.53.55v2.17L57.41,12a.5.5,0,0,1,.36-.14.52.52,0,0,1,.52.49.47.47,0,0,1-.16.39l-1.54,1.49,1.8,2.88a.53.53,0,0,1,.09.3.48.48,0,0,1-.5.49.51.51,0,0,1-.45-.22L55.84,15,54.74,16v1.34a.53.53,0,0,1-.53.55"/>
        <path class="cls-1" d="M62.52,17.94a3.06,3.06,0,1,1,3-3.06,3,3,0,0,1-3,3.06m0-5.14a1.94,1.94,0,0,0-1.94,2.08,1.94,1.94,0,1,0,3.88,0,2,2,0,0,0-1.94-2.08"/>
      </g>
    </g>
  </g>
</svg>
