<svg xmlns="http://www.w3.org/2000/svg" xmlns:xlink="http://www.w3.org/1999/xlink" xmlns:serif="http://www.serif.com/" width="100%" height="100%" viewBox="0 0 4364 4536" xml:space="preserve" style="fill-rule:evenodd;clip-rule:evenodd;stroke-linejoin:round;stroke-miterlimit:2;">    <g transform="matrix(0.666667,0,0,0.666667,0,0)">        <g transform="matrix(23.6763,0,0,23.6763,5.60924,2.54616)">            <g>                <path d="M267.694,160.723C267.694,225.714 215.008,278.397 150.02,278.397C85.03,278.397 32.346,225.714 32.346,160.723C32.346,95.733 85.03,43.049 150.02,43.049C215.008,43.049 267.694,95.733 267.694,160.723Z" style="fill:rgb(33,21,14);"></path>                <path d="M150.02,54.687C91.551,54.687 43.985,102.254 43.985,160.723C43.985,219.19 91.551,266.759 150.02,266.759C208.49,266.759 256.056,219.19 256.056,160.723C256.056,102.254 208.49,54.687 150.02,54.687ZM150.02,270.243C89.632,270.243 40.498,221.112 40.498,160.723C40.498,100.334 89.632,51.203 150.02,51.203C210.409,51.203 259.54,100.334 259.54,160.723C259.54,221.112 210.409,270.243 150.02,270.243Z" style="fill:rgb(212,0,25);"></path>                <path d="M101.407,220.522C101.391,220.561 101.361,220.583 101.338,220.572C101.319,220.561 101.149,220.233 100.958,219.84C100.24,218.349 100.058,217.631 100.022,216.078C99.997,215.122 100.069,214.291 100.284,212.952C100.422,212.112 100.763,210.639 100.848,210.529C100.87,210.496 100.991,210.715 101.113,211.016C101.319,211.52 101.331,211.592 101.276,211.949C101.187,212.533 101.104,213.47 100.958,215.668C100.884,216.758 100.815,217.675 100.802,217.705C100.788,217.735 100.81,217.807 100.851,217.859C100.895,217.917 100.934,217.95 100.939,217.937C100.945,217.926 100.997,217.515 101.055,217.027C101.162,216.108 101.422,214.85 101.793,213.445C101.914,212.993 102.019,212.611 102.027,212.591C102.036,212.575 102.143,212.685 102.267,212.833C102.391,212.988 102.556,213.175 102.636,213.258C102.947,213.569 102.963,213.423 102.261,216.373C101.823,218.212 101.63,219.132 101.512,219.947C101.474,220.225 101.426,220.484 101.407,220.522Z" style="fill:rgb(57,57,53);"></path>                <path d="M32.812,171.731C32.757,171.808 32.845,171.833 33.68,171.962C34.44,172.084 34.544,172.084 35.274,171.962C36.042,171.833 37.023,171.51 37.932,171.081C38.972,170.59 40.528,169.55 41.404,168.759L41.837,168.371L41.812,168.208C41.795,168.115 41.751,168.046 41.704,168.043C41.658,168.04 40.589,168.594 39.325,169.274C36.921,170.568 35.943,171.07 35.935,171.012C35.932,170.99 36.1,170.885 36.306,170.778C37.504,170.148 39.826,168.572 41.035,167.569L41.561,167.134L41.493,166.859C41.454,166.707 41.402,166.578 41.377,166.567C41.349,166.559 41.085,166.713 40.782,166.909C38.347,168.498 35.938,169.966 33.902,171.097C33.321,171.419 32.831,171.704 32.812,171.731ZM23.399,174.813C23.349,174.881 23.418,174.901 23.886,174.939C25.219,175.052 27.05,174.752 28.259,174.226C28.455,174.141 28.783,173.948 28.989,173.796C29.485,173.43 30.769,172.323 30.815,172.221C30.834,172.177 30.22,172.409 29.449,172.733C28.219,173.254 26.73,173.857 25.698,174.254C25.101,174.485 25.308,174.342 26.062,174.003C26.885,173.637 28.185,172.948 28.895,172.504C29.342,172.227 31.507,170.701 31.559,170.626C31.575,170.607 31.446,170.56 31.275,170.525C31.104,170.489 30.793,170.406 30.584,170.34C30.231,170.23 30.185,170.23 29.986,170.349C29.799,170.461 28.596,171.273 24.734,173.89C24.17,174.273 23.647,174.628 23.57,174.677C23.492,174.727 23.415,174.787 23.399,174.813ZM26.935,177.577C26.91,177.613 26.904,177.652 26.924,177.663C26.946,177.676 27.318,177.66 27.753,177.627C29.399,177.503 30.113,177.296 31.476,176.55C32.313,176.093 32.999,175.614 34.051,174.757C34.71,174.22 35.814,173.185 35.866,173.056C35.883,173.02 35.632,173.025 35.31,173.072C34.77,173.146 34.704,173.171 34.42,173.4C33.96,173.769 33.192,174.309 31.363,175.534C30.454,176.145 29.697,176.665 29.678,176.694C29.656,176.721 29.584,176.735 29.518,176.726C29.447,176.718 29.399,176.701 29.408,176.691C29.416,176.677 29.744,176.429 30.135,176.135C30.879,175.58 31.839,174.725 32.867,173.7C33.197,173.37 33.478,173.085 33.489,173.072C33.5,173.056 33.352,173.017 33.159,172.987C32.966,172.954 32.717,172.904 32.608,172.877C32.181,172.763 32.3,172.675 30.1,174.76C28.728,176.063 28.028,176.688 27.381,177.197C27.161,177.373 26.959,177.545 26.935,177.577Z" style="fill:rgb(57,57,53);"></path>                <path d="M93.404,145.887C93.404,145.887 95.016,162.452 105.522,165.311C116.997,168.429 119.432,149.746 128.537,158.371C130.379,160.12 133.998,165.32 123.015,175.826C114.481,183.988 108.014,185.04 103.203,193.388C98.752,201.105 109.438,221.974 96.312,239.759C84.534,255.718 65.35,257.06 38.295,241.458C3.568,221.432 8.676,196.398 11.215,191.165C13.754,185.933 17.15,178.8 26.758,172.504C36.367,166.209 51.514,163.387 56.237,156.22C61.742,147.865 60.44,133.313 65.543,123.677C69.861,115.517 80.158,112.658 88.155,117.271C89.243,117.896 88.91,119.568 87.662,119.703C83.551,120.144 78.291,122.248 77.688,130.008C76.688,142.943 91.386,140.058 91.386,140.058L93.404,145.887Z" style="fill:white;"></path>                <path d="M71.846,232.709C71.846,232.709 84.669,238.715 89.653,238.514C94.636,238.313 97.007,237.74 97.007,237.74C97.007,237.74 89.847,250.32 79.202,251.868C68.555,253.419 59.264,252.256 49.975,247.806C40.682,243.353 38.361,243.16 33.908,238.903C29.457,234.642 16.682,227.867 13.391,217.416C10.1,206.965 9.522,202.707 10.681,196.706C11.843,190.706 13.198,187.222 15.523,186.255C17.844,185.286 19.003,178.899 19.003,178.899C19.003,178.899 24.932,172.232 30.584,170.34C36.232,168.448 49.005,164.576 52.685,160.899C56.361,157.22 57.331,156.254 58.878,151.222C60.426,146.188 61.392,138.834 62.555,133.607C63.717,128.38 62.362,126.444 65.457,122.768C68.555,119.091 70.103,117.155 72.62,116.382C75.134,115.605 79.202,114.446 80.943,115.412C82.686,116.382 84.62,119.284 84.62,119.284L84.426,121.22C84.426,121.22 79.081,122.151 78.773,130.094C78.467,138.034 79.202,137.092 81.524,138.253C83.846,139.413 84.62,141.156 84.62,141.156L82.686,143.285L75.911,140.575L72.232,138.253L69.521,142.704L65.457,155.091L61.2,163.221L53.07,168.448L42.812,174.835L39.716,185.674L43.585,196.514L48.039,205.029L52.103,210.063C52.103,210.063 63.717,215.48 64.297,215.288C64.878,215.094 70.296,217.997 70.296,217.997L71.846,232.709Z" style="fill:rgb(196,22,29);"></path>                <path d="M118.231,161.004C115.15,164.124 111.314,168.013 105.236,166.36C94.52,163.449 92.526,147.854 92.336,146.124L90.653,141.269C88.467,141.536 83.003,141.831 79.519,138.73C77.285,136.742 76.308,133.781 76.605,129.926C77.115,123.338 81.001,119.323 87.547,118.62C87.588,118.615 87.687,118.607 87.717,118.458C87.739,118.351 87.704,118.266 87.61,118.213C83.961,116.106 79.723,115.591 75.677,116.756C71.69,117.905 68.432,120.543 66.504,124.184C64.138,128.65 63.172,134.362 62.235,139.884C61.205,145.978 60.137,152.28 57.146,156.818C54.125,161.4 47.425,164.182 40.33,167.126C35.797,169.007 31.11,170.954 27.353,173.413C18.092,179.483 14.727,186.417 12.268,191.485L12.193,191.639C10.926,194.247 9.221,201.537 11.824,210.46C15.192,222.011 24.283,232.123 38.837,240.516C64.703,255.429 83.743,254.956 95.437,239.112C103.44,228.272 102.325,216.315 101.429,206.709C100.873,200.732 100.432,196.012 102.261,192.846C105.258,187.649 108.876,185.159 113.065,182.275C115.794,180.397 118.89,178.266 122.263,175.038C127.022,170.489 129.531,166.38 129.524,163.157C129.522,161.596 128.936,160.252 127.788,159.161C127.129,158.54 126.529,158.071 125.962,157.746C123.23,156.172 121.34,157.856 118.231,161.004ZM9.737,211.068C6.952,201.528 8.743,193.77 10.235,190.689L10.312,190.534C12.879,185.242 16.395,177.99 26.161,171.593C30.088,169.024 34.872,167.035 39.496,165.119C46.273,162.304 52.676,159.646 55.328,155.623C58.068,151.464 59.052,145.662 60.092,139.52C61.057,133.828 62.054,127.943 64.582,123.168C66.788,118.998 70.513,115.979 75.074,114.666C79.692,113.335 84.534,113.925 88.698,116.327C89.615,116.856 90.064,117.869 89.847,118.91C89.629,119.937 88.817,120.673 87.778,120.785C82.235,121.378 79.205,124.511 78.775,130.094C78.53,133.23 79.266,135.591 80.962,137.099C84.487,140.244 91.111,139.003 91.173,138.992L92.102,138.81L94.476,145.653L94.487,145.783C94.5,145.923 95.85,158.911 103.365,163.243C104.117,163.676 104.93,164.022 105.808,164.262C110.658,165.578 113.723,162.475 116.686,159.476C119.991,156.127 123.739,152.335 129.283,157.584C130.858,159.076 131.696,161.004 131.701,163.152C131.71,167.038 129.039,171.565 123.767,176.61C120.267,179.959 117.097,182.141 114.299,184.066C110.162,186.914 106.896,189.16 104.145,193.933C102.663,196.5 103.096,201.137 103.597,206.508C104.476,215.957 105.682,228.894 97.189,240.404C84.73,257.285 64.733,257.957 37.752,242.4C22.691,233.717 13.267,223.175 9.737,211.068Z" style="fill:rgb(145,24,23);"></path>                <path d="M98.219,199.543C98.219,199.543 103.322,235.069 91.625,235.859C79.932,236.647 83.058,220.443 77.338,213.772C71.618,207.102 44.924,202.592 46.981,185.96C49.035,169.329 61.979,171.769 68.552,159.536C75.129,147.306 72.064,144.015 73.802,143.073C75.543,142.131 82.204,145.406 88.585,151.599C94.971,157.79 95.162,163.37 101.325,166.834C104.385,168.556 107.628,169.888 112.263,168.12C115.411,166.922 117.055,165.124 118.482,163.598C120.977,160.93 122.076,158.685 124.189,158.991C127.501,159.465 127.809,162.422 122.61,169.426C116.152,178.128 105.929,179.676 101.149,191.237C101.149,191.237 104.552,185.283 112.407,180.499C120.355,175.658 135.496,162.775 125.775,156.461C125.775,156.461 124.017,155.207 120.889,157.151C117.76,159.096 117.138,161.343 114.439,163.086C111.737,164.826 109.705,166.782 104.051,164.799C98.398,162.816 95.071,153.263 95.071,153.263L93.432,146.13L91.386,140.06C91.386,140.06 78.045,142.484 77.658,131.941C77.275,121.399 85.118,119.995 88.216,119.513C88.216,119.513 88.783,119.595 88.8,118.549C88.817,117.502 88.188,117.164 86.952,116.641C85.712,116.117 76.754,111.565 68.542,119.667C64.711,123.484 63.069,130.237 63.069,130.237L60.45,143.775C60.45,143.775 59.514,149.606 58.151,152.464C56.788,155.325 56.152,158.36 48.749,162.166C41.347,165.97 32.759,168.8 29.163,171.056C25.569,173.312 17.354,178.25 12.653,188.266C7.949,198.279 7.117,206.163 14.415,220.035C21.716,233.907 43.847,245.209 54.309,249.07C54.309,249.07 40.201,242.932 28.386,233.293C20.786,227.094 14.383,219.052 12.485,211.566C8.511,195.905 14.432,187.04 18.103,186.737C21.777,186.434 57.19,236.688 60.167,240.439C63.147,244.187 72.307,250.571 78.172,248.189C86.018,245.002 85.809,238.484 85.809,238.484C85.809,238.484 91.075,241.998 94.636,238.313C94.636,238.313 85.669,253.229 67.751,251.508C67.751,251.508 76.303,253.465 82.521,250.588C88.739,247.707 91.088,245.933 93.382,243.265C95.676,240.596 98.125,237.404 99.036,235.469C99.951,233.533 101.892,229.28 102.407,225.541C102.92,221.801 103.104,214.915 103.104,214.915C103.104,214.915 101.972,219.154 101.947,220.366C101.92,221.579 100.925,225.034 100.573,225.684C100.573,225.684 101.829,210.652 98.219,199.543Z" style="fill:rgb(196,22,29);"></path>                <path d="M73.221,197.593L61.695,184.985C61.092,184.325 61.139,183.3 61.8,182.697L63.348,181.284C64.005,180.681 65.03,180.728 65.634,181.386L77.156,193.994C77.759,194.652 77.715,195.676 77.054,196.28L75.507,197.695C74.848,198.298 73.824,198.252 73.221,197.593Z" style="fill:rgb(33,21,14);"></path>                <path d="M62.152,214.172L50.635,207.53C49.231,206.719 48.752,204.924 49.559,203.522L53.637,196.447C54.45,195.043 56.243,194.561 57.647,195.371L69.164,202.014C70.569,202.823 71.05,204.619 70.241,206.02L66.162,213.095C65.351,214.497 63.557,214.979 62.152,214.172Z" style="fill:white;"></path>                <path d="M62.759,213.318L51.071,206.576C49.674,205.773 49.195,203.988 49.999,202.592L53.965,195.715C54.772,194.316 56.557,193.837 57.952,194.643L69.64,201.383C71.037,202.187 71.516,203.974 70.712,205.37L66.746,212.244C65.942,213.643 64.154,214.122 62.759,213.318Z" style="fill:rgb(33,21,14);"></path>                <path d="M69.059,204.203C68.734,204.767 68.013,204.96 67.448,204.635C66.884,204.31 66.691,203.589 67.016,203.024C67.341,202.459 68.062,202.267 68.627,202.592C69.192,202.919 69.384,203.638 69.059,204.203Z" style="fill:white;"></path>                <path d="M66.256,202.586C65.931,203.151 65.209,203.343 64.644,203.018C64.083,202.693 63.887,201.972 64.211,201.407C64.537,200.842 65.259,200.65 65.823,200.975C66.388,201.303 66.581,202.021 66.256,202.586Z" style="fill:white;"></path>                <path d="M63.452,200.969C63.127,201.534 62.406,201.727 61.841,201.402C61.277,201.077 61.084,200.355 61.409,199.791C61.734,199.226 62.455,199.033 63.02,199.358C63.585,199.686 63.777,200.405 63.452,200.969Z" style="fill:white;"></path>                <path d="M60.649,199.353C60.324,199.917 59.602,200.11 59.038,199.785C58.476,199.46 58.28,198.739 58.605,198.174C58.933,197.609 59.652,197.417 60.216,197.742C60.781,198.07 60.973,198.788 60.649,199.353Z" style="fill:white;"></path>                <path d="M57.845,197.736C57.52,198.301 56.802,198.493 56.234,198.168C55.67,197.844 55.477,197.122 55.802,196.557C56.127,195.993 56.848,195.8 57.416,196.125C57.977,196.453 58.17,197.171 57.845,197.736Z" style="fill:white;"></path>                <path d="M55.342,201.798L53.543,200.757L54.833,198.519L56.633,199.557L55.342,201.798Z" style="fill:white;"></path>                <path d="M58.148,203.415L56.347,202.374L57.636,200.135L59.437,201.173L58.148,203.415Z" style="fill:white;"></path>                <path d="M60.949,205.032L59.151,203.99L60.44,201.751L62.24,202.79L60.949,205.032Z" style="fill:white;"></path>                <path d="M63.753,206.648L61.954,205.607L63.243,203.368L65.044,204.406L63.753,206.648Z" style="fill:white;"></path>                <path d="M66.556,208.265L64.758,207.224L66.047,204.984L67.847,206.023L66.556,208.265Z" style="fill:white;"></path>                <path d="M66.033,209.661L63.81,208.378L64.08,207.912L66.303,209.193L66.033,209.661Z" style="fill:white;"></path>                <path d="M63.23,208.044L61.007,206.761L61.277,206.296L63.5,207.576L63.23,208.044Z" style="fill:white;"></path>                <path d="M60.426,206.428L58.203,205.144L58.473,204.679L60.696,205.959L60.426,206.428Z" style="fill:white;"></path>                <path d="M57.623,204.811L55.4,203.528L55.67,203.063L57.892,204.343L57.623,204.811Z" style="fill:white;"></path>                <path d="M54.819,203.194L52.597,201.911L52.866,201.446L55.089,202.726L54.819,203.194Z" style="fill:white;"></path>                <path d="M84.355,209.826C83.788,210.812 84.126,212.073 85.112,212.641C86.095,213.208 87.359,212.872 87.927,211.886C88.497,210.9 88.155,209.639 87.173,209.069C86.186,208.502 84.925,208.84 84.355,209.826ZM83.548,209.36C84.374,207.931 86.208,207.439 87.638,208.262C89.067,209.088 89.56,210.922 88.733,212.352C87.911,213.781 86.076,214.274 84.647,213.447C83.217,212.624 82.725,210.79 83.548,209.36Z" style="fill:rgb(33,21,14);"></path>                <path d="M88.288,224.08C87.72,225.064 88.059,226.328 89.045,226.896C90.028,227.462 91.292,227.124 91.859,226.138C92.43,225.155 92.088,223.894 91.105,223.323C90.119,222.756 88.857,223.095 88.288,224.08ZM87.481,223.612C88.307,222.186 90.141,221.693 91.57,222.517C92.999,223.34 93.492,225.174 92.669,226.603C91.843,228.036 90.009,228.528 88.58,227.702C87.15,226.879 86.657,225.045 87.481,223.612Z" style="fill:rgb(33,21,14);"></path>                <path d="M73.766,195.114C73.337,195.514 72.665,195.486 72.268,195.054C71.872,194.621 71.899,193.95 72.328,193.553C72.761,193.156 73.43,193.184 73.829,193.616C74.226,194.046 74.198,194.718 73.766,195.114Z" style="fill:rgb(57,57,53);"></path>                <path d="M71.574,192.735C71.144,193.132 70.472,193.104 70.076,192.672C69.679,192.242 69.706,191.57 70.137,191.174C70.569,190.777 71.241,190.804 71.637,191.235C72.034,191.667 72.006,192.339 71.574,192.735Z" style="fill:rgb(57,57,53);"></path>                <path d="M69.381,190.355C68.949,190.752 68.28,190.725 67.883,190.293C67.484,189.863 67.512,189.191 67.944,188.795C68.376,188.395 69.046,188.422 69.442,188.855C69.842,189.287 69.814,189.959 69.381,190.355Z" style="fill:rgb(57,57,53);"></path>                <path d="M67.19,187.974C66.76,188.37 66.088,188.345 65.689,187.913C65.292,187.48 65.32,186.808 65.752,186.415C66.181,186.015 66.853,186.043 67.25,186.476C67.646,186.905 67.619,187.58 67.19,187.974Z" style="fill:rgb(57,57,53);"></path>                <path d="M64.998,185.594C64.565,185.991 63.896,185.963 63.5,185.534C63.1,185.101 63.127,184.429 63.559,184.033C63.99,183.636 64.661,183.663 65.058,184.093C65.455,184.526 65.43,185.198 64.998,185.594Z" style="fill:rgb(57,57,53);"></path>                <path d="M90.103,170.549L75.364,162.048C74.573,161.594 74.303,160.583 74.757,159.792L75.826,157.942C76.28,157.151 77.291,156.879 78.081,157.333L92.82,165.834C93.611,166.289 93.881,167.299 93.427,168.09L92.358,169.94C91.904,170.731 90.893,171.003 90.103,170.549Z" style="fill:rgb(33,21,14);"></path>                <path d="M89.86,167.897C89.565,168.404 88.918,168.58 88.409,168.286C87.902,167.994 87.729,167.344 88.021,166.837C88.313,166.327 88.963,166.154 89.469,166.446C89.978,166.74 90.152,167.387 89.86,167.897Z" style="fill:rgb(57,57,53);"></path>                <path d="M87.057,166.281C86.765,166.787 86.115,166.964 85.605,166.669C85.098,166.377 84.925,165.727 85.217,165.22C85.509,164.711 86.159,164.537 86.668,164.829C87.175,165.124 87.349,165.771 87.057,166.281Z" style="fill:rgb(57,57,53);"></path>                <path d="M84.253,164.664C83.958,165.171 83.311,165.347 82.801,165.052C82.295,164.761 82.122,164.111 82.414,163.604C82.708,163.094 83.356,162.92 83.865,163.212C84.371,163.507 84.545,164.154 84.253,164.664Z" style="fill:rgb(57,57,53);"></path>                <path d="M81.449,163.047C81.157,163.554 80.508,163.731 80.001,163.436C79.491,163.144 79.318,162.494 79.61,161.987C79.902,161.477 80.552,161.304 81.061,161.596C81.568,161.89 81.742,162.538 81.449,163.047Z" style="fill:rgb(57,57,53);"></path>                <path d="M78.646,161.431C78.354,161.938 77.704,162.114 77.194,161.819C76.688,161.527 76.514,160.877 76.807,160.37C77.101,159.861 77.748,159.687 78.258,159.979C78.764,160.274 78.938,160.921 78.646,161.431Z" style="fill:rgb(57,57,53);"></path>                <path d="M82.526,183.757L67.727,175.223C66.953,174.777 66.688,173.788 67.135,173.014L68.178,171.202C68.624,170.428 69.612,170.164 70.387,170.61L85.186,179.144C85.961,179.591 86.225,180.576 85.779,181.35L84.735,183.165C84.289,183.939 83.3,184.203 82.526,183.757Z" style="fill:rgb(33,21,14);"></path>                <path d="M82.254,181.089C81.962,181.596 81.312,181.772 80.802,181.477C80.296,181.185 80.122,180.535 80.414,180.028C80.706,179.519 81.356,179.345 81.862,179.637C82.372,179.932 82.545,180.579 82.254,181.089Z" style="fill:rgb(57,57,53);"></path>                <path d="M79.45,179.472C79.156,179.979 78.509,180.155 77.999,179.861C77.492,179.569 77.319,178.919 77.61,178.412C77.902,177.902 78.552,177.729 79.062,178.02C79.568,178.315 79.742,178.962 79.45,179.472Z" style="fill:rgb(57,57,53);"></path>                <path d="M76.647,177.856C76.352,178.362 75.705,178.539 75.195,178.244C74.689,177.952 74.515,177.302 74.807,176.795C75.099,176.285 75.749,176.112 76.255,176.404C76.765,176.699 76.939,177.346 76.647,177.856Z" style="fill:rgb(57,57,53);"></path>                <path d="M73.843,176.239C73.548,176.746 72.901,176.922 72.395,176.627C71.885,176.335 71.712,175.685 72.003,175.179C72.295,174.669 72.945,174.495 73.455,174.787C73.961,175.082 74.135,175.729 73.843,176.239Z" style="fill:rgb(57,57,53);"></path>                <path d="M71.039,174.622C70.745,175.129 70.098,175.305 69.588,175.011C69.081,174.719 68.908,174.069 69.2,173.562C69.492,173.053 70.141,172.88 70.651,173.171C71.157,173.466 71.332,174.113 71.039,174.622Z" style="fill:rgb(57,57,53);"></path>                <path d="M92.201,201.991C92.289,202.044 92.394,202.066 92.504,202.049C92.758,202.014 92.934,201.777 92.895,201.52L90.893,187.99C90.854,187.734 90.617,187.558 90.364,187.596C90.111,187.635 89.935,187.872 89.97,188.125L91.975,201.658C91.994,201.804 92.082,201.925 92.201,201.991Z" style="fill:rgb(33,21,14);"></path>                <path d="M92.33,200.878L91.257,202.713C91.257,202.713 92.322,206.712 93.427,206.585C94.531,206.458 94.137,202.286 94.137,202.286L92.33,200.878Z" style="fill:white;"></path>                <path d="M92.463,201.575L91.758,202.779C92.281,204.652 93.044,206.098 93.36,206.125C93.674,205.946 93.826,204.23 93.691,202.528L92.463,201.575ZM90.805,202.831L90.755,202.644L92.199,200.185L94.58,202.044L94.6,202.242C94.762,203.971 94.834,206.893 93.479,207.047C93.272,207.069 93.074,207.02 92.884,206.913C91.84,206.309 91.105,203.949 90.805,202.831Z" style="fill:rgb(33,21,14);"></path>                <path d="M144.317,46.833L154.168,52.515C154.317,52.6 154.504,52.551 154.592,52.402C154.678,52.253 154.625,52.063 154.476,51.975L144.628,46.296C144.48,46.21 144.289,46.26 144.201,46.409C144.116,46.558 144.168,46.748 144.317,46.833Z" style="fill:rgb(57,57,53);"></path>                <path d="M140.726,53.06L150.577,58.741C150.725,58.827 150.916,58.774 151.004,58.626C151.089,58.477 151.037,58.287 150.888,58.201L141.037,52.523C140.888,52.435 140.699,52.487 140.613,52.636C140.527,52.785 140.58,52.974 140.726,53.06Z" style="fill:rgb(57,57,53);"></path>                <path d="M91.755,151.236C91.403,151.85 90.617,152.059 90.003,151.707C89.392,151.351 89.18,150.569 89.535,149.955C89.888,149.341 90.672,149.132 91.287,149.487C91.898,149.84 92.11,150.624 91.755,151.236Z" style="fill:rgb(57,57,53);"></path>                <path d="M149.007,24.691L147.71,25.548L150.216,29.354C150.637,29.054 151.064,28.761 151.494,28.469L149.007,24.691Z" style="fill:rgb(33,21,14);"></path>                <path d="M153.777,21.386L152.477,22.24L154.884,25.895C155.292,25.57 155.702,25.253 156.118,24.942L153.777,21.386Z" style="fill:rgb(33,21,14);"></path>                <path d="M158.265,18.046L156.966,18.902L159.365,22.54C159.389,22.524 159.414,22.504 159.436,22.485C159.824,22.188 160.213,21.89 160.601,21.596L158.265,18.046Z" style="fill:rgb(33,21,14);"></path>                <path d="M163.286,15.176L161.989,16.03L163.989,19.07C164.291,18.856 164.591,18.638 164.897,18.423C165.019,18.338 165.139,18.252 165.258,18.17L163.286,15.176Z" style="fill:rgb(33,21,14);"></path>                <path d="M168.934,11.841L167.637,12.695L169.408,15.389C169.857,15.124 170.314,14.882 170.788,14.653L168.934,11.841Z" style="fill:rgb(33,21,14);"></path>                <path d="M185.841,17.313C185.996,11.99 178.78,8.817 173.688,12.458C168.596,16.099 146.071,31.331 145.242,32.766C144.413,34.2 146.195,35.467 146.776,38.194C147.357,40.92 145.782,43.239 145.782,43.239L81.141,149.388C79.546,151.998 80.329,155.405 82.898,157.063L86.186,159.184L89.67,160.968C92.394,162.361 95.731,161.331 97.194,158.647L156.685,49.527C160.493,43.311 166.035,42.044 168.582,41.801C169.436,41.719 170.16,41.129 170.427,40.312L175.624,24.457C181.228,25.534 185.701,22.13 185.841,17.313Z" style="fill:rgb(33,21,14);"></path>                <path d="M185.376,17.3C185.437,15.237 184.249,13.353 182.201,12.26C179.615,10.883 176.379,11.108 173.96,12.838C172.567,13.833 169.838,15.716 166.679,17.897C159.059,23.16 146.308,31.967 145.647,32.997C145.309,33.586 145.556,34.126 146.107,35.2C146.495,35.952 146.975,36.892 147.231,38.098C147.847,40.983 146.234,43.399 146.179,43.481L81.537,149.633C80.065,152.046 80.774,155.138 83.152,156.672L86.401,158.769L89.882,160.552C92.399,161.844 95.431,160.908 96.783,158.422L156.286,49.284C160.268,42.788 166.178,41.562 168.538,41.336C169.204,41.272 169.772,40.813 169.984,40.166L175.31,23.92L175.712,23.998C178.386,24.512 180.972,23.962 182.812,22.488C184.407,21.21 185.315,19.368 185.376,17.3Z" style="fill:rgb(33,21,14);"></path>                <path d="M174.018,17.192L173.759,16.531L173.297,16.694C173.016,16.658 172.713,16.727 172.459,16.925C172.206,17.118 171.857,17.212 171.824,17.492C171.824,17.492 172.206,18.239 172.313,18.376C172.65,18.814 173.2,18.869 173.677,18.503C174.154,18.134 174.255,17.745 174.018,17.192Z" style="fill:rgb(57,57,53);"></path>                <path d="M145.592,43.961L157.206,50.347C157.206,50.347 159.381,45.701 162.868,44.831C166.348,43.961 169.204,43.622 170.367,42.945C171.526,42.267 171.721,40.959 171.721,40.959L176.682,25.737C176.682,25.737 183.286,27.171 185.61,21.943C187.932,16.715 186.092,13.766 182.173,11.731C178.254,9.698 174.625,11.153 172.449,13.039C170.782,14.48 156.52,24.352 149.704,29.154C147.597,30.637 145.881,32.055 145.881,32.055C145.881,32.055 144.188,33.121 145.495,35.297C146.801,37.475 147.14,39.265 146.655,40.813C145.793,43.575 145.592,43.961 145.592,43.961Z" style="fill:rgb(196,22,29);"></path>                <path d="M173.401,16.988C173.355,17.005 173.305,17.008 173.255,17.002C173.041,16.975 172.829,17.033 172.65,17.17C172.564,17.236 172.468,17.294 172.374,17.349C172.306,17.385 172.218,17.44 172.168,17.481C172.33,17.796 172.512,18.123 172.562,18.186C172.672,18.332 172.815,18.418 172.972,18.431C173.14,18.448 173.319,18.388 173.487,18.255C173.85,17.977 173.914,17.738 173.732,17.313C173.732,17.31 173.732,17.308 173.729,17.305L173.58,16.925L173.401,16.988ZM172.066,18.566C171.953,18.418 171.639,17.815 171.545,17.635C171.515,17.578 171.507,17.517 171.513,17.454C171.556,17.104 171.848,16.933 172.06,16.809C172.129,16.768 172.204,16.727 172.27,16.677C172.559,16.454 172.909,16.35 173.261,16.377L173.655,16.24C173.812,16.182 173.985,16.261 174.049,16.419L174.304,17.074C174.597,17.762 174.456,18.294 173.867,18.748C173.57,18.976 173.242,19.081 172.914,19.051C172.746,19.035 172.589,18.982 172.446,18.9C172.303,18.817 172.173,18.707 172.066,18.566Z" style="fill:rgb(57,57,53);"></path>                <path d="M173.423,17.856C172.947,18.222 172.289,18.164 171.953,17.729C171.617,17.294 171.73,16.641 172.206,16.275C172.683,15.912 173.341,15.967 173.677,16.402C174.013,16.84 173.9,17.49 173.423,17.856Z" style="fill:white;"></path>                <path d="M172.966,16.35C172.768,16.33 172.564,16.393 172.396,16.523C172.058,16.785 171.969,17.242 172.198,17.539C172.308,17.683 172.474,17.768 172.663,17.784C172.865,17.801 173.066,17.741 173.234,17.611C173.401,17.478 173.514,17.3 173.547,17.101C173.58,16.914 173.54,16.732 173.429,16.592C173.382,16.529 173.322,16.476 173.25,16.435C173.164,16.388 173.071,16.358 172.966,16.35ZM171.708,17.919C171.267,17.349 171.405,16.501 172.016,16.03C172.308,15.804 172.663,15.7 173.019,15.73C173.385,15.76 173.707,15.931 173.922,16.212C174.139,16.493 174.222,16.848 174.159,17.209C174.099,17.561 173.905,17.878 173.614,18.101C173.322,18.327 172.964,18.434 172.608,18.404C172.416,18.388 172.228,18.33 172.069,18.236C171.931,18.156 171.807,18.051 171.708,17.919Z" style="fill:rgb(57,57,53);"></path>                <path d="M168.301,21.175L168.04,20.513L167.579,20.676C167.299,20.64 166.993,20.711 166.742,20.907C166.489,21.1 166.139,21.194 166.104,21.474C166.104,21.474 166.489,22.221 166.597,22.358C166.932,22.794 167.483,22.852 167.959,22.485C168.433,22.119 168.535,21.728 168.301,21.175Z" style="fill:rgb(57,57,53);"></path>                <path d="M167.684,20.971C167.635,20.984 167.585,20.993 167.538,20.984C167.323,20.954 167.108,21.015 166.93,21.152C166.844,21.218 166.751,21.276 166.654,21.328C166.588,21.367 166.497,21.422 166.448,21.464C166.613,21.777 166.792,22.105 166.842,22.169C166.955,22.315 167.098,22.4 167.254,22.413C167.423,22.43 167.602,22.37 167.77,22.24C168.133,21.959 168.194,21.72 168.015,21.296C168.015,21.293 168.012,21.29 168.012,21.287L167.861,20.907L167.684,20.971ZM166.348,22.549C166.233,22.4 165.922,21.796 165.825,21.618C165.798,21.56 165.786,21.5 165.795,21.436C165.839,21.087 166.131,20.915 166.343,20.795C166.412,20.75 166.487,20.709 166.552,20.659C166.842,20.436 167.189,20.331 167.541,20.359L167.935,20.221C168.095,20.164 168.265,20.243 168.329,20.401L168.587,21.056C168.877,21.744 168.739,22.276 168.147,22.731C167.852,22.959 167.522,23.063 167.194,23.033C167.029,23.017 166.872,22.965 166.726,22.882C166.582,22.799 166.456,22.686 166.348,22.549Z" style="fill:rgb(57,57,53);"></path>                <path d="M167.706,21.838C167.23,22.205 166.572,22.149 166.236,21.714C165.9,21.276 166.013,20.626 166.489,20.26C166.962,19.891 167.624,19.949 167.957,20.384C168.296,20.822 168.183,21.472 167.706,21.838Z" style="fill:white;"></path>                <path d="M166.679,20.505C166.341,20.767 166.252,21.224 166.481,21.524C166.591,21.665 166.754,21.75 166.943,21.767C167.144,21.783 167.345,21.722 167.517,21.593C167.855,21.331 167.943,20.874 167.712,20.574C167.663,20.508 167.602,20.458 167.533,20.417C167.285,20.274 166.943,20.298 166.679,20.505ZM165.988,21.902C165.55,21.331 165.688,20.483 166.299,20.012C166.907,19.541 167.764,19.621 168.205,20.197C168.642,20.767 168.508,21.612 167.897,22.086C167.605,22.309 167.247,22.416 166.891,22.386C166.696,22.37 166.514,22.312 166.351,22.218C166.214,22.138 166.09,22.031 165.988,21.902Z" style="fill:rgb(57,57,53);"></path>                <path d="M163.638,24.344L163.377,23.683L162.914,23.846C162.634,23.81 162.33,23.882 162.077,24.074C161.824,24.27 161.474,24.363 161.438,24.645C161.438,24.645 161.824,25.388 161.931,25.529C162.267,25.964 162.818,26.022 163.294,25.655C163.771,25.289 163.873,24.899 163.638,24.344Z" style="fill:rgb(57,57,53);"></path>                <path d="M163.019,24.141C162.972,24.154 162.923,24.16 162.873,24.154C162.661,24.124 162.443,24.184 162.267,24.323C162.182,24.388 162.085,24.446 161.991,24.499C161.926,24.537 161.835,24.589 161.785,24.633C161.948,24.947 162.13,25.275 162.176,25.339C162.289,25.485 162.432,25.567 162.589,25.585C162.757,25.6 162.936,25.539 163.105,25.408C163.468,25.129 163.531,24.889 163.349,24.466C163.349,24.463 163.349,24.46 163.346,24.457L163.198,24.077L163.019,24.141ZM161.686,25.718C161.57,25.57 161.256,24.968 161.163,24.788C161.135,24.73 161.124,24.669 161.13,24.606C161.174,24.256 161.465,24.086 161.678,23.962C161.75,23.92 161.824,23.879 161.887,23.829C162.176,23.606 162.523,23.501 162.878,23.529L163.272,23.391C163.432,23.333 163.603,23.413 163.666,23.567L163.925,24.226C164.214,24.914 164.074,25.447 163.485,25.9C163.187,26.129 162.856,26.233 162.531,26.203C162.366,26.188 162.206,26.134 162.063,26.052C161.92,25.969 161.793,25.856 161.686,25.718Z" style="fill:rgb(57,57,53);"></path>                <path d="M163.041,25.008C162.565,25.374 161.906,25.319 161.57,24.882C161.234,24.446 161.35,23.796 161.824,23.43C162.3,23.061 162.959,23.118 163.294,23.554C163.631,23.992 163.518,24.642 163.041,25.008Z" style="fill:white;"></path>                <path d="M162.586,23.499C162.385,23.482 162.182,23.546 162.014,23.675C161.675,23.937 161.587,24.394 161.818,24.691C162.047,24.994 162.512,25.025 162.851,24.763C163.19,24.499 163.278,24.044 163.049,23.744C163,23.68 162.936,23.628 162.868,23.587C162.785,23.54 162.689,23.51 162.586,23.499ZM161.325,25.072C160.885,24.501 161.025,23.653 161.634,23.182C161.926,22.959 162.284,22.852 162.639,22.882C163.005,22.912 163.325,23.086 163.54,23.367C163.98,23.937 163.842,24.782 163.231,25.257C162.76,25.616 162.143,25.653 161.686,25.388C161.549,25.309 161.425,25.205 161.325,25.072Z" style="fill:rgb(57,57,53);"></path>                <path d="M158.671,27.748L158.409,27.087L157.949,27.25C157.668,27.211 157.362,27.283 157.112,27.478C156.858,27.673 156.506,27.764 156.473,28.05C156.473,28.05 156.858,28.792 156.966,28.934C157.302,29.369 157.853,29.425 158.329,29.059C158.803,28.69 158.905,28.302 158.671,27.748Z" style="fill:rgb(57,57,53);"></path>                <path d="M158.054,27.542C158.004,27.559 157.954,27.563 157.908,27.559C157.693,27.529 157.478,27.589 157.299,27.727C157.214,27.792 157.12,27.848 157.027,27.904C156.958,27.942 156.867,27.994 156.82,28.037C156.982,28.352 157.161,28.679 157.211,28.742C157.324,28.886 157.464,28.972 157.624,28.988C157.792,29.001 157.969,28.94 158.139,28.811C158.502,28.53 158.563,28.293 158.384,27.869C158.382,27.867 158.382,27.865 158.382,27.861L158.23,27.481L158.054,27.542ZM156.718,29.123C156.602,28.972 156.291,28.371 156.198,28.189C156.167,28.134 156.156,28.07 156.164,28.011C156.209,27.66 156.501,27.49 156.712,27.365C156.784,27.324 156.855,27.283 156.922,27.233C157.208,27.011 157.558,26.906 157.911,26.934L158.304,26.792C158.467,26.737 158.638,26.818 158.698,26.972L158.957,27.63C159.246,28.318 159.109,28.849 158.519,29.304C158.222,29.533 157.891,29.638 157.563,29.604C157.398,29.589 157.238,29.538 157.095,29.456C156.952,29.373 156.826,29.261 156.718,29.123Z" style="fill:rgb(57,57,53);"></path>                <path d="M158.076,28.412C157.599,28.779 156.941,28.72 156.605,28.285C156.269,27.85 156.382,27.198 156.855,26.831C157.332,26.465 157.993,26.524 158.326,26.958C158.665,27.393 158.552,28.046 158.076,28.412Z" style="fill:white;"></path>                <path d="M157.049,27.08C156.707,27.341 156.619,27.796 156.85,28.095C157.084,28.395 157.547,28.426 157.885,28.164C158.224,27.904 158.313,27.445 158.081,27.149C158.031,27.082 157.971,27.029 157.902,26.991C157.654,26.848 157.313,26.873 157.049,27.08ZM156.357,28.475C155.916,27.904 156.057,27.057 156.669,26.586C157.277,26.115 158.134,26.198 158.574,26.768C159.012,27.341 158.877,28.186 158.265,28.658C157.795,29.021 157.178,29.054 156.718,28.789C156.583,28.71 156.459,28.606 156.357,28.475Z" style="fill:rgb(57,57,53);"></path>                <path d="M154.597,30.886L154.336,30.227L153.876,30.389C153.595,30.35 153.289,30.422 153.036,30.619C152.782,30.814 152.436,30.904 152.4,31.185C152.4,31.185 152.785,31.931 152.89,32.072C153.229,32.507 153.779,32.565 154.253,32.195C154.73,31.83 154.831,31.441 154.597,30.886Z" style="fill:rgb(57,57,53);"></path>                <path d="M153.977,30.681C153.931,30.697 153.882,30.703 153.834,30.697C153.62,30.668 153.405,30.728 153.226,30.863C153.141,30.932 153.044,30.99 152.95,31.042C152.885,31.08 152.794,31.133 152.744,31.177C152.909,31.49 153.088,31.818 153.138,31.882C153.372,32.185 153.727,32.212 154.066,31.951C154.429,31.669 154.49,31.433 154.311,31.009C154.311,31.006 154.308,31.003 154.308,31L154.157,30.62L153.977,30.681ZM152.645,32.259C152.529,32.11 152.215,31.51 152.125,31.331C152.094,31.273 152.083,31.21 152.092,31.149C152.135,30.8 152.424,30.629 152.639,30.505C152.708,30.464 152.782,30.422 152.849,30.373C153.138,30.149 153.485,30.046 153.837,30.073L154.234,29.932C154.391,29.878 154.564,29.957 154.625,30.111L154.884,30.77C155.173,31.458 155.035,31.99 154.444,32.444C153.983,32.799 153.452,32.843 153.025,32.598C152.885,32.518 152.755,32.405 152.645,32.259Z" style="fill:rgb(57,57,53);"></path>                <path d="M154.003,31.551C153.526,31.918 152.868,31.86 152.532,31.425C152.193,30.99 152.309,30.337 152.782,29.97C153.259,29.604 153.918,29.659 154.253,30.097C154.592,30.533 154.476,31.185 154.003,31.551Z" style="fill:white;"></path>                <path d="M153.545,30.042C153.344,30.025 153.143,30.086 152.973,30.219C152.804,30.348 152.694,30.528 152.658,30.725C152.625,30.912 152.67,31.094 152.777,31.234C152.888,31.378 153.05,31.463 153.24,31.48C153.441,31.496 153.645,31.433 153.813,31.304C153.98,31.174 154.091,30.995 154.126,30.797C154.157,30.61 154.118,30.429 154.008,30.287C153.958,30.222 153.898,30.169 153.829,30.13C153.743,30.08 153.648,30.054 153.545,30.042ZM152.284,31.614C152.069,31.334 151.984,30.981 152.047,30.619C152.108,30.268 152.301,29.951 152.596,29.727C152.888,29.499 153.242,29.392 153.597,29.423C153.964,29.456 154.286,29.626 154.501,29.908C154.716,30.188 154.801,30.541 154.738,30.904C154.678,31.254 154.482,31.571 154.193,31.796C153.901,32.022 153.543,32.13 153.187,32.1C152.992,32.083 152.807,32.025 152.648,31.931C152.508,31.851 152.386,31.744 152.284,31.614Z" style="fill:rgb(57,57,53);"></path>                <path d="M145.347,23.978C145.347,23.978 145.71,26.46 147.288,26.831L150.357,24.832C150.357,24.832 150.475,23.237 148.514,21.868L145.347,23.978Z" style="fill:rgb(219,219,218);"></path>                <path d="M150.042,24.667C150.015,24.289 149.814,23.235 148.506,22.246L145.691,24.121C145.804,24.655 146.209,26.145 147.239,26.494L150.042,24.667ZM145.041,24.022C145.022,23.904 145.077,23.785 145.176,23.719L148.343,21.61C148.448,21.541 148.586,21.538 148.693,21.615C150.775,23.069 150.67,24.782 150.665,24.856C150.659,24.953 150.607,25.038 150.527,25.093L147.459,27.09C147.388,27.137 147.302,27.154 147.22,27.134C147.018,27.087 146.837,27.013 146.671,26.916C145.369,26.166 145.055,24.121 145.041,24.022Z" style="fill:rgb(219,219,218);"></path>                <path d="M150.329,20.726C150.329,20.726 152.83,21.734 152.262,23.543L155.091,21.673C155.091,21.673 152.673,20.935 152.918,19.037L150.329,20.726Z" style="fill:rgb(219,219,218);"></path>                <path d="M152.612,19.607L150.957,20.687C150.968,20.692 150.979,20.698 150.987,20.707C151.742,21.139 152.593,21.904 152.653,22.912L154.424,21.741C153.655,21.367 152.763,20.656 152.612,19.607ZM152.075,23.791C151.973,23.711 151.926,23.576 151.967,23.449C152.438,21.937 150.235,21.023 150.213,21.015C150.106,20.971 150.032,20.871 150.017,20.756C150.01,20.643 150.062,20.53 150.158,20.467L152.747,18.775C152.852,18.71 152.97,18.701 153.083,18.773C153.184,18.836 153.242,18.955 153.226,19.076C153.019,20.69 155.093,21.348 155.181,21.376C155.297,21.412 155.383,21.51 155.399,21.629C155.416,21.747 155.363,21.866 155.264,21.932L152.436,23.802C152.333,23.868 152.21,23.871 152.108,23.813C152.097,23.804 152.089,23.799 152.075,23.791Z" style="fill:rgb(219,219,218);"></path>                <path d="M154.942,17.715C154.942,17.715 154.828,19.47 156.63,20.654L159.791,18.564C159.791,18.564 159.75,16.481 157.684,15.925L154.942,17.715Z" style="fill:rgb(219,219,218);"></path>                <path d="M157.735,16.264L155.253,17.884C155.272,18.288 155.443,19.409 156.635,20.279L159.467,18.407C159.409,17.958 159.125,16.708 157.735,16.264ZM156.462,20.915C154.529,19.646 154.625,17.776 154.63,17.699C154.636,17.6 154.688,17.509 154.771,17.456L157.514,15.666C157.589,15.617 157.679,15.603 157.765,15.628C160.031,16.234 160.103,18.536 160.103,18.558C160.105,18.665 160.053,18.765 159.962,18.823L156.803,20.913C156.704,20.979 156.578,20.981 156.475,20.924C156.473,20.921 156.468,20.918 156.462,20.915Z" style="fill:rgb(219,219,218);"></path>                <path d="M159.623,14.658C159.623,14.658 159.723,16.402 161.317,17.556L165.007,15.116C165.007,15.116 164.853,13.034 163.115,12.381L159.623,14.658Z" style="fill:rgb(219,219,218);"></path>                <path d="M163.148,12.731L159.957,14.813C160.022,15.234 160.292,16.335 161.331,17.176L164.674,14.964C164.594,14.502 164.272,13.238 163.148,12.731ZM161.135,17.809C159.439,16.581 159.318,14.755 159.315,14.678C159.31,14.565 159.362,14.46 159.455,14.399L162.947,12.122C163.027,12.067 163.135,12.056 163.225,12.092C165.123,12.8 165.311,15 165.318,15.094C165.327,15.207 165.275,15.314 165.178,15.374L161.491,17.815C161.389,17.881 161.262,17.884 161.163,17.826C161.152,17.82 161.143,17.815 161.135,17.809Z" style="fill:rgb(219,219,218);"></path>                <path d="M165.387,10.899C165.387,10.899 167.359,11.488 167.241,13.639L170.356,11.627C170.356,11.627 168.15,11.555 168.216,9.051L165.387,10.899Z" style="fill:rgb(219,219,218);"></path>                <path d="M167.93,9.61L166.023,10.855C166.585,11.18 167.395,11.849 167.536,13.08L169.568,11.764C168.924,11.524 168.081,10.957 167.93,9.61ZM166.93,13.623C167.032,11.75 165.366,11.219 165.296,11.197C165.181,11.161 165.096,11.065 165.079,10.943C165.06,10.825 165.115,10.707 165.217,10.64L168.045,8.792C168.141,8.729 168.265,8.726 168.368,8.782C168.37,8.782 168.37,8.784 168.37,8.784C168.469,8.842 168.53,8.947 168.527,9.063C168.469,11.213 170.287,11.312 170.364,11.315C170.499,11.321 170.617,11.412 170.653,11.544C170.691,11.673 170.636,11.813 170.523,11.888L167.409,13.901C167.31,13.964 167.186,13.967 167.084,13.909C167.004,13.865 166.922,13.742 166.93,13.623Z" style="fill:rgb(219,219,218);"></path>                <path d="M102.063,133.36C101.711,133.974 100.925,134.186 100.311,133.831C99.697,133.478 99.488,132.693 99.843,132.079C100.196,131.465 100.981,131.256 101.592,131.611C102.206,131.963 102.418,132.748 102.063,133.36Z" style="fill:rgb(57,57,53);"></path>                <path d="M137.038,59.455L146.889,65.133C147.038,65.218 147.228,65.169 147.316,65.02C147.401,64.871 147.349,64.682 147.2,64.596L137.35,58.915C137.201,58.829 137.011,58.879 136.925,59.03C136.84,59.179 136.892,59.367 137.038,59.455Z" style="fill:white;"></path>                <path d="M132.616,67.127L142.466,72.806C142.615,72.891 142.805,72.842 142.89,72.693C142.976,72.544 142.926,72.354 142.778,72.268L132.926,66.59C132.778,66.502 132.588,66.554 132.503,66.703C132.415,66.852 132.467,67.039 132.616,67.127Z" style="fill:white;"></path>                <path d="M144.543,46.442L154.393,52.121C154.542,52.209 154.733,52.156 154.818,52.008C154.903,51.859 154.854,51.669 154.705,51.583L144.854,45.905C144.705,45.817 144.516,45.869 144.429,46.018C144.341,46.167 144.394,46.356 144.543,46.442Z" style="fill:white;"></path>                <path d="M140.117,54.114L149.968,59.796C150.117,59.881 150.306,59.829 150.392,59.68C150.481,59.532 150.428,59.341 150.279,59.256L140.429,53.578C140.28,53.49 140.089,53.542 140.004,53.691C139.919,53.839 139.971,54.029 140.117,54.114Z" style="fill:white;"></path>                <path d="M128.89,73.587L138.74,79.269C138.889,79.354 139.079,79.302 139.164,79.154C139.25,79.005 139.2,78.814 139.052,78.729L129.2,73.048C129.052,72.963 128.86,73.015 128.776,73.164C128.688,73.313 128.741,73.502 128.89,73.587Z" style="fill:white;"></path>                <path d="M124.274,80.762L134.843,86.857C134.992,86.942 135.182,86.89 135.267,86.741C135.352,86.592 135.303,86.402 135.154,86.317L124.585,80.222C124.436,80.136 124.246,80.189 124.16,80.338C124.072,80.487 124.125,80.674 124.274,80.762Z" style="fill:white;"></path>                <path d="M120.107,87.985L130.679,94.08C130.828,94.165 131.018,94.113 131.103,93.964C131.189,93.816 131.136,93.625 130.991,93.54L120.418,87.446C120.269,87.361 120.079,87.413 119.994,87.562C119.908,87.71 119.961,87.897 120.107,87.985Z" style="fill:white;"></path>                <path d="M115.257,96.399L125.827,102.493C125.976,102.579 126.165,102.526 126.251,102.377C126.336,102.229 126.287,102.039 126.138,101.954L115.568,95.859C115.42,95.774 115.23,95.823 115.142,95.972C115.056,96.12 115.109,96.311 115.257,96.399Z" style="fill:white;"></path>                <path d="M111.6,102.091L122.731,108.511C122.88,108.596 123.07,108.543 123.156,108.395C123.241,108.247 123.191,108.056 123.043,107.971L111.911,101.551C111.763,101.466 111.572,101.519 111.484,101.667C111.402,101.816 111.451,102.006 111.6,102.091Z" style="fill:white;"></path>                <path d="M107.835,108.621L118.967,115.037C119.115,115.123 119.306,115.073 119.391,114.925C119.476,114.776 119.427,114.586 119.278,114.501L108.147,108.081C107.998,107.996 107.808,108.048 107.722,108.194C107.637,108.343 107.686,108.536 107.835,108.621Z" style="fill:white;"></path>                <path d="M104.737,113.738L116.089,120.284C116.237,120.369 116.428,120.32 116.513,120.171C116.601,120.023 116.549,119.832 116.4,119.744L105.045,113.201C104.899,113.113 104.71,113.165 104.622,113.314C104.536,113.462 104.588,113.653 104.737,113.738Z" style="fill:white;"></path>                <path d="M101.835,118.772L113.186,125.318C113.335,125.404 113.525,125.351 113.611,125.205C113.699,125.056 113.646,124.867 113.497,124.779L102.143,118.235C101.997,118.147 101.804,118.199 101.718,118.348C101.633,118.497 101.686,118.687 101.835,118.772Z" style="fill:white;"></path>                <path d="M99.105,123.294L110.639,129.948C110.788,130.033 110.977,129.981 111.063,129.832C111.148,129.683 111.099,129.493 110.95,129.408L99.414,122.757C99.268,122.672 99.075,122.721 98.989,122.87C98.904,123.019 98.956,123.208 99.105,123.294Z" style="fill:white;"></path>                <path d="M96.651,127.549L108.185,134.2C108.333,134.288 108.524,134.236 108.609,134.087C108.694,133.938 108.645,133.748 108.496,133.662L96.959,127.012C96.811,126.927 96.621,126.976 96.536,127.125C96.45,127.274 96.503,127.463 96.651,127.549Z" style="fill:white;"></path>                <path d="M93.928,132.076L105.77,138.906C105.918,138.992 106.108,138.939 106.194,138.794C106.282,138.645 106.23,138.452 106.081,138.366L94.239,131.54C94.09,131.451 93.9,131.504 93.815,131.652C93.727,131.801 93.779,131.991 93.928,132.076Z" style="fill:white;"></path>                <path d="M91.289,136.654L103.131,143.483C103.28,143.566 103.47,143.516 103.558,143.368C103.644,143.219 103.592,143.029 103.443,142.943L91.601,136.114C91.452,136.028 91.262,136.078 91.173,136.227C91.088,136.375 91.141,136.566 91.289,136.654Z" style="fill:white;"></path>                <path d="M88.511,141.148L100.493,148.057C100.645,148.143 100.835,148.091 100.92,147.945C101.006,147.796 100.953,147.606 100.805,147.518L88.822,140.608C88.673,140.523 88.483,140.575 88.398,140.721C88.313,140.87 88.365,141.06 88.511,141.148Z" style="fill:white;"></path>                <path d="M86.118,145.295L98.103,152.205C98.251,152.29 98.439,152.241 98.527,152.092C98.612,151.943 98.56,151.754 98.411,151.668L86.429,144.759C86.28,144.673 86.09,144.723 86.004,144.871C85.919,145.02 85.969,145.21 86.118,145.295Z" style="fill:white;"></path>                <path d="M83.3,149.768L95.64,156.887C95.792,156.972 95.982,156.92 96.068,156.771C96.153,156.623 96.104,156.433 95.955,156.347L83.611,149.231C83.463,149.142 83.272,149.195 83.187,149.344C83.102,149.492 83.152,149.682 83.3,149.768Z" style="fill:white;"></path>                <path d="M83.198,119.882C81.19,120.816 79.458,122.327 78.244,124.175C77.027,126.031 76.407,128.246 76.374,130.457C76.338,132.658 76.721,134.927 77.853,136.846C78.96,138.758 80.846,140.228 83.003,140.754C80.987,139.718 79.525,138.143 78.685,136.353C78.282,135.448 77.963,134.508 77.823,133.509C77.655,132.528 77.574,131.492 77.616,130.485C77.608,129.471 77.751,128.477 77.993,127.513C78.2,126.535 78.602,125.615 79.056,124.707C80.02,122.917 81.422,121.281 83.198,119.882Z" style="fill:white;"></path>                <path d="M78.839,115.936C76.848,115.996 74.897,116.654 73.116,117.563C71.326,118.48 69.706,119.75 68.363,121.273C67.013,122.795 65.997,124.594 65.234,126.478C64.482,128.361 63.97,130.316 63.559,132.28C62.731,136.21 62.351,140.184 61.742,144.081C61.136,147.962 60.404,151.872 58.617,155.249C58.179,156.091 57.669,156.894 57.08,157.622C56.493,158.364 55.821,159.065 55.132,159.729C53.734,161.045 52.159,162.163 50.486,163.144C47.121,165.091 43.384,166.415 39.691,167.897C35.99,169.349 32.303,170.954 28.868,173.02C25.451,175.102 22.275,177.572 19.507,180.425C21.011,179.125 22.573,177.899 24.189,176.762C25.811,175.63 27.499,174.603 29.243,173.68C32.715,171.802 36.397,170.376 40.121,169.027C43.844,167.688 47.644,166.383 51.211,164.419C52.984,163.425 54.664,162.23 56.171,160.836C56.918,160.126 57.625,159.393 58.278,158.583C58.942,157.774 59.508,156.894 59.988,155.976C60.957,154.141 61.602,152.186 62.092,150.222C62.58,148.256 62.926,146.273 63.191,144.293C63.725,140.33 64.058,136.381 64.73,132.509C65.069,130.573 65.526,128.665 66.157,126.824C66.807,125.001 67.716,123.261 68.927,121.741C70.125,120.215 71.612,118.902 73.309,117.91C74.152,117.409 75.046,116.99 75.969,116.646C76.895,116.316 77.85,116.004 78.839,115.936Z" style="fill:white;"></path>                <path d="M50.134,231.211C47.887,228.382 21.19,190.496 18.422,190.725C15.652,190.953 12.239,200.485 14.509,209.506C21.567,237.553 60.693,247.349 60.693,247.349C60.693,247.349 35.439,234.548 36.777,229.343C38.119,224.135 50.134,231.211 50.134,231.211Z" style="fill:rgb(196,22,29);"></path>                <path d="M122.194,157.162C121.564,157.218 120.93,157.426 120.36,157.718C119.779,157.999 119.245,158.358 118.727,158.718C118.212,159.087 117.733,159.486 117.248,159.872L115.855,161.07C114.951,161.88 114.043,162.648 113.112,163.358C112.184,164.061 111.17,164.664 110.154,165.08C108.135,165.889 105.726,165.59 103.572,164.683C101.419,163.761 99.364,162.367 97.855,160.412C98.483,161.47 99.317,162.392 100.246,163.196C101.176,164.001 102.206,164.686 103.31,165.223C104.415,165.763 105.602,166.143 106.822,166.289C108.042,166.438 109.297,166.324 110.454,165.903C112.764,165.016 114.681,163.389 116.461,161.712C117.356,160.866 118.221,159.993 119.135,159.173C120.049,158.366 121.018,157.556 122.194,157.162Z" style="fill:white;"></path>                <path d="M58.952,194.062L153.857,32.474L153.32,32.16L58.416,193.749L58.952,194.062Z" style="fill:rgb(219,219,218);"></path>                <path d="M69.635,200.223L70.175,200.529L172.955,18.817L172.416,18.511L69.635,200.223Z" style="fill:rgb(219,219,218);"></path>                <path d="M61.765,195.682L158.081,29.528L157.544,29.216L61.227,195.371L61.765,195.682Z" style="fill:rgb(219,219,218);"></path>                <path d="M63.929,196.93L64.466,197.238L162.752,25.938L162.212,25.63L63.929,196.93Z" style="fill:rgb(219,219,218);"></path>                <path d="M66.823,198.601L67.366,198.907L167.254,22.794L166.715,22.491L66.823,198.601Z" style="fill:rgb(219,219,218);"></path>                <path d="M143.841,106.423C145.209,106.423 146.255,105.828 146.969,104.638C147.421,103.923 147.638,103.105 147.627,102.179C147.613,101.257 147.382,100.439 146.936,99.723C146.217,98.583 145.187,98.01 143.841,98.01C143.1,98.01 142.441,98.205 141.872,98.594C141.205,99.043 140.72,99.643 140.414,100.398C140.197,100.99 140.087,101.61 140.087,102.254C140.087,102.945 140.186,103.529 140.378,104.002C140.754,104.9 141.351,105.573 142.164,106.024C142.662,106.291 143.221,106.423 143.841,106.423ZM140.051,120.116C140.001,120.116 139.903,120.105 139.751,120.08C139.599,120.056 139.487,120.042 139.412,120.042C139.39,120.042 139.31,119.981 139.178,119.862C139.104,119.791 139.093,119.686 139.14,119.552C139.238,119.309 139.363,119.061 139.523,118.805C139.743,118.431 140.037,117.891 140.414,117.186C140.792,116.481 141.04,116.026 141.161,115.82L142.018,114.308C142.067,114.212 142.197,113.994 142.408,113.653C142.62,113.314 142.764,113.058 142.835,112.887C142.863,112.84 142.909,112.741 142.984,112.587C143.055,112.435 143.108,112.336 143.146,112.286C143.289,111.912 143.289,111.587 143.138,111.311C142.984,111.039 142.728,110.865 142.365,110.794C141.913,110.722 141.676,110.684 141.654,110.684L141.524,110.684C141.199,110.684 140.615,110.508 139.779,110.155C138.611,109.657 137.683,108.877 136.992,107.806C136.521,107.068 136.165,106.357 135.937,105.677C134.989,102.763 135.116,100.031 136.317,97.481C137.168,95.664 138.594,94.295 140.596,93.386C141.472,92.987 142.334,92.783 143.182,92.783L144.438,92.783C146.286,92.783 147.977,93.496 149.519,94.914C150.965,96.261 151.868,98.01 152.235,100.161C152.449,101.532 152.417,103.047 152.125,104.713C151.843,106.206 151.408,107.511 150.813,108.627C150.216,109.769 149.762,110.642 149.448,111.248L146.498,116.657L145.077,119.227C144.796,119.819 144.336,120.116 143.692,120.116L140.051,120.116Z" style="fill:rgb(217,218,219);"></path>                <path d="M155.416,120.116C154.967,120.116 154.628,120.105 154.396,120.08C154.019,120.056 153.796,119.832 153.724,119.408C153.697,119.263 153.686,119.012 153.686,118.659L153.686,115.346C153.639,114.495 153.939,113.749 154.597,113.107C156.14,111.565 157.268,110.392 157.982,109.593L159.477,108.026C161.212,106.156 162.281,105.027 162.68,104.638C162.801,104.518 162.975,104.319 163.2,104.047C163.427,103.774 163.586,103.576 163.683,103.455C163.829,103.286 164.03,102.994 164.283,102.581C164.611,102.058 164.74,101.392 164.666,100.58C164.619,99.982 164.399,99.466 164.011,99.029C163.622,98.594 163.129,98.29 162.537,98.12C162.256,98.049 162.008,98.01 161.788,98.01C160.698,98.01 159.926,98.407 159.477,99.194C159.428,99.266 159.359,99.398 159.268,99.585C159.177,99.775 159.106,99.905 159.056,99.976L158.984,100.086C158.963,100.112 158.913,100.252 158.841,100.505C158.841,100.53 158.827,100.566 158.803,100.615C158.781,100.665 158.767,100.698 158.767,100.726C158.571,101.1 158.299,101.287 157.949,101.287L157.767,101.287C157.715,101.287 157.641,101.282 157.536,101.271C157.434,101.257 157.359,101.252 157.31,101.252C157.032,101.252 156.644,101.218 156.153,101.152C155.66,101.083 155.278,101.051 154.997,101.051C154.922,101.051 154.79,101.028 154.597,100.979C154.27,100.882 154.104,100.698 154.104,100.434L154.104,99.905C154.386,98.533 154.658,97.561 154.922,96.991C156.019,94.708 157.905,93.331 160.587,92.857C161.036,92.783 161.499,92.75 161.97,92.75C162.14,92.75 162.402,92.767 162.754,92.802C163.105,92.841 163.308,92.857 163.355,92.857C164.278,92.929 165.239,93.279 166.233,93.895C167.202,94.515 167.918,95.297 168.381,96.245C168.83,97.095 169.133,97.958 169.29,98.831C169.532,100.252 169.502,101.7 169.199,103.182C168.871,104.699 168.243,106.005 167.307,107.098C166.712,107.789 166.238,108.309 165.889,108.662L163.209,111.359L161.68,112.887C161.513,113.058 161.273,113.319 160.97,113.672C160.689,113.975 160.617,114.27 160.75,114.561C160.871,114.891 161.135,115.079 161.535,115.125C161.752,115.151 162.099,115.164 162.573,115.164L168.582,115.164C168.775,115.164 168.91,115.176 168.982,115.2C169.287,115.297 169.486,115.489 169.584,115.784C169.632,115.927 169.653,116.067 169.653,116.203L169.653,119.152C169.632,119.527 169.557,119.783 169.428,119.915C169.301,120.05 169.056,120.116 168.69,120.116L155.416,120.116Z" style="fill:rgb(217,218,219);"></path>                <path d="M175.506,120.934C174.101,120.862 173.074,120.16 172.424,118.827C171.708,117.321 171.724,115.847 172.479,114.407C173.09,113.146 174.082,112.479 175.45,112.408C176.924,112.339 178.017,112.934 178.739,114.198C179.18,114.917 179.397,115.74 179.397,116.671L179.397,116.827C179.397,117.004 179.381,117.169 179.345,117.329C179.309,117.943 179.108,118.53 178.739,119.091C177.987,120.317 176.96,120.934 175.662,120.934L175.506,120.934Z" style="fill:rgb(217,218,219);"></path>                <path d="M188.342,120.57C187.67,120.57 187.023,120.493 186.392,120.336C184.354,119.91 182.809,118.794 181.766,116.985C181.622,116.767 181.509,116.531 181.438,116.274C181.266,115.85 181.366,115.528 181.732,115.31C181.754,115.286 181.807,115.255 181.883,115.219C181.964,115.181 182.016,115.151 182.038,115.125C183.324,114.581 184.299,114.181 184.952,113.925C185.026,113.875 185.133,113.842 185.279,113.815C185.329,113.793 185.403,113.779 185.499,113.779C185.693,113.779 185.869,113.854 186.028,114L186.32,114.308L186.668,114.671C187.163,115.17 187.818,115.443 188.631,115.489C188.656,115.517 188.722,115.528 188.829,115.528C189.875,115.528 190.743,115.079 191.437,114.181C191.677,113.804 191.856,113.471 191.963,113.179C192.363,112.11 192.376,111.031 191.999,109.937C191.696,108.993 191.074,108.269 190.124,107.77C189.553,107.42 188.874,107.205 188.085,107.133C187.844,107.109 187.406,107.098 186.772,107.098L185.207,107.098C184.566,107.098 184.079,107.084 183.751,107.059C183.302,107.059 182.991,107.048 182.823,107.023C182.492,106.977 182.305,106.787 182.258,106.459C182.211,106.106 182.187,105.878 182.187,105.768C182.234,104.129 182.258,102.898 182.258,102.072L182.294,99.486C182.319,99.183 182.332,98.748 182.332,98.183C182.332,97.619 182.341,97.198 182.368,96.919L182.368,94.953C182.368,94.879 182.371,94.755 182.385,94.579C182.396,94.402 182.402,94.265 182.402,94.171C182.429,93.794 182.503,93.54 182.633,93.414C182.76,93.287 183.01,93.196 183.387,93.149L194.53,93.149C195.004,93.149 195.337,93.163 195.532,93.185C195.885,93.235 196.086,93.446 196.132,93.824C196.182,94.066 196.207,94.254 196.207,94.388L196.207,96.955C196.207,97.002 196.193,97.104 196.168,97.255C196.146,97.407 196.132,97.506 196.132,97.556C196.086,97.858 195.91,98.035 195.604,98.085C195.511,98.109 195.365,98.12 195.169,98.12C194.973,98.145 194.701,98.156 194.348,98.156L188.705,98.156C188.303,98.205 188.085,98.241 188.047,98.266C187.502,98.387 187.177,98.699 187.064,99.194C186.921,99.789 186.907,100.439 187.028,101.141C187.149,101.665 187.461,101.948 187.956,101.997C188.176,102.022 188.526,102.033 189.014,102.033C189.683,102.033 190.336,102.108 190.98,102.254C193.114,102.702 194.72,103.933 195.786,105.95C196.505,107.214 196.882,108.601 196.918,110.119C196.964,111.333 196.918,112.366 196.769,113.214C196.576,114.358 196.223,115.387 195.714,116.313C194.67,118.279 193.068,119.571 190.908,120.19C190.093,120.443 189.237,120.57 188.342,120.57Z" style="fill:rgb(217,218,219);"></path>                <path d="M138.911,175.79C138.825,175.79 138.691,175.779 138.506,175.76C138.321,175.738 138.187,175.726 138.098,175.726C137.385,175.597 136.964,175.195 136.832,174.523C136.788,174.309 136.768,173.969 136.768,173.515L136.768,171.728C136.722,167.242 136.703,160.541 136.703,151.624C136.703,142.704 136.722,136.026 136.768,131.583L136.768,129.73C136.768,129.298 136.788,128.984 136.832,128.788C136.964,128.16 137.319,127.78 137.903,127.651C138.338,127.565 138.674,127.519 138.911,127.519L143.689,127.519C144.039,127.519 144.416,127.584 144.829,127.714C145.261,127.758 145.543,128.05 145.672,128.593C145.76,128.766 145.804,129.036 145.804,129.405C145.848,129.796 145.878,130.391 145.903,131.192L145.903,141.238C145.903,142.125 145.923,142.797 145.966,143.255C146.008,143.382 146.118,143.687 146.291,144.164C146.377,144.337 146.54,144.461 146.779,144.535C147.015,144.613 147.233,144.574 147.429,144.422C147.776,144.164 148.013,143.946 148.145,143.772L149.153,142.31C149.692,141.335 150.527,139.884 151.654,137.953C152.782,136.026 153.636,134.574 154.223,133.6C154.763,132.754 155.512,131.485 156.465,129.796L157.277,128.526C157.775,127.943 158.329,127.629 158.935,127.584C159.02,127.584 159.142,127.574 159.293,127.551C159.444,127.532 159.544,127.519 159.584,127.519L164.266,127.519C164.44,127.519 164.743,127.565 165.178,127.651C165.847,127.824 166.076,128.224 165.861,128.851C165.685,129.286 165.533,129.623 165.404,129.86L163.941,132.462C162.251,135.299 159.714,139.6 156.335,145.367L155.556,146.634C154.754,147.956 154.699,149.311 155.393,150.696L156.79,153.687C157.765,155.724 159.243,158.806 161.229,162.935C163.212,167.062 164.691,170.18 165.666,172.282C166.013,172.995 166.25,173.549 166.379,173.939L166.575,174.719C166.66,175.066 166.508,175.336 166.117,175.531C166.076,175.531 165.947,175.564 165.729,175.63C165.514,175.694 165.33,175.726 165.178,175.726L159.263,175.726C158.632,175.597 158.145,175.258 157.797,174.719C157.668,174.501 157.41,174.017 157.018,173.257L151.427,161.747C151.166,161.12 150.896,160.588 150.615,160.155C150.483,159.941 150.257,159.668 149.932,159.343C149.39,158.911 148.88,158.911 148.404,159.343C148.145,159.517 147.927,159.743 147.754,160.026C147.123,161.09 146.661,161.899 146.355,162.464C146.096,163.05 145.966,163.678 145.966,164.35C145.923,164.738 145.903,165.358 145.903,166.204L145.903,172.799C145.903,173.19 145.848,173.788 145.738,174.589C145.608,175.173 145.24,175.531 144.634,175.661C144.198,175.749 143.885,175.79 143.689,175.79L138.911,175.79Z" style="fill:white;"></path>                <path d="M173.401,175.726C172.966,175.726 172.641,175.705 172.426,175.661C171.84,175.531 171.482,175.195 171.355,174.653C171.267,174.22 171.22,173.917 171.22,173.744L171.22,129.796C171.22,129.578 171.267,129.243 171.355,128.788C171.482,128.201 171.84,127.843 172.426,127.714C172.771,127.629 173.033,127.584 173.209,127.584L178.342,127.584C178.386,127.584 178.441,127.596 178.505,127.618C178.568,127.637 178.623,127.651 178.667,127.651C179.557,127.651 180.086,128.213 180.259,129.339C180.303,129.556 180.325,129.881 180.325,130.314L180.325,173.939C180.281,174.025 180.259,174.157 180.259,174.33C180.259,174.501 180.237,174.634 180.196,174.719C180.11,175.066 179.804,175.358 179.287,175.597C179.111,175.683 178.799,175.726 178.342,175.726L173.401,175.726Z" style="fill:white;"></path>                <path d="M199.44,176.864C195.081,176.82 191.421,175.021 188.452,171.467C187.562,170.45 186.717,168.922 185.915,166.883C185.827,166.71 185.739,166.353 185.654,165.812C185.525,165.141 185.794,164.653 186.469,164.35C186.814,164.177 187.075,164.066 187.251,164.025C187.681,163.94 188.347,163.813 189.248,163.651C190.145,163.488 190.812,163.342 191.247,163.21C191.421,163.169 191.636,163.147 191.897,163.147C192.44,163.147 192.883,163.364 193.227,163.797C193.36,163.97 193.566,164.284 193.847,164.738C194.282,165.411 194.725,165.964 195.18,166.396C196.457,167.677 197.964,168.261 199.696,168.153C201.431,168.043 202.83,167.264 203.89,165.812C204.389,165.141 204.744,164.339 204.965,163.406C205.353,161.629 204.975,160.1 203.827,158.823C203.155,158.107 202.494,157.534 201.842,157.101C200.781,156.474 199.958,156.006 199.371,155.703C199.068,155.529 198.548,155.262 197.812,154.907C197.074,154.548 196.535,154.251 196.188,154.012L192.776,151.962C192.104,151.575 191.192,150.792 190.044,149.622C188.091,147.675 186.99,145.279 186.728,142.44C186.293,137.651 187.868,133.459 191.44,129.862C191.787,129.513 192.167,129.198 192.58,128.918C195.764,126.794 199.22,126.067 202.948,126.739C206.416,127.37 209.082,129.069 210.943,131.842C211.703,133.164 212.213,134.142 212.472,134.77C212.778,135.483 212.538,136.047 211.758,136.458L210.88,136.849C209.407,137.391 207.941,137.835 206.49,138.182C206.058,138.226 205.634,138.094 205.226,137.791C204.728,137.447 204.367,137.108 204.152,136.783C203.13,135.722 201.891,135.202 200.429,135.224C198.967,135.244 197.724,135.722 196.708,136.654C195.904,137.369 195.353,138.171 195.05,139.061C194.337,140.966 194.66,142.539 196.025,143.772C196.742,144.403 197.702,145.039 198.917,145.692C199.305,145.907 200.068,146.331 201.194,146.959C202.321,147.589 203.197,148.052 203.827,148.355C205.298,149.03 206.482,149.743 207.369,150.5C210.751,153.21 212.678,156.537 213.155,160.48C213.287,161.5 213.287,162.475 213.155,163.406C212.723,166.591 211.726,169.235 210.167,171.34C207.542,174.892 203.968,176.735 199.44,176.864Z" style="fill:white;"></path>                <path d="M230.301,176.864C225.945,176.82 222.284,175.021 219.315,171.467C218.426,170.45 217.58,168.922 216.779,166.883C216.693,166.71 216.605,166.353 216.517,165.812C216.391,165.141 216.658,164.653 217.333,164.35C217.677,164.177 217.938,164.066 218.112,164.025C218.544,163.94 219.211,163.813 220.111,163.651C221.009,163.488 221.679,163.342 222.111,163.21C222.284,163.169 222.499,163.147 222.761,163.147C223.303,163.147 223.746,163.364 224.091,163.797C224.223,163.97 224.427,164.284 224.711,164.738C225.146,165.411 225.589,165.964 226.043,166.396C227.321,167.677 228.827,168.261 230.56,168.153C232.295,168.043 233.694,167.264 234.754,165.812C235.253,165.141 235.611,164.339 235.828,163.406C236.219,161.629 235.839,160.1 234.691,158.823C234.019,158.107 233.358,157.534 232.705,157.101C231.645,156.474 230.822,156.006 230.235,155.703C229.932,155.529 229.412,155.262 228.677,154.907C227.938,154.548 227.396,154.251 227.051,154.012L223.639,151.962C222.967,151.575 222.056,150.792 220.907,149.622C218.955,147.675 217.853,145.279 217.592,142.44C217.159,137.651 218.729,133.459 222.304,129.862C222.651,129.513 223.031,129.198 223.444,128.918C226.627,126.794 230.084,126.067 233.813,126.739C237.28,127.37 239.945,129.069 241.81,131.842C242.567,133.164 243.076,134.142 243.336,134.77C243.638,135.483 243.401,136.047 242.622,136.458L241.744,136.849C240.268,137.391 238.808,137.835 237.354,138.182C236.922,138.226 236.5,138.094 236.09,137.791C235.588,137.447 235.23,137.108 235.016,136.783C233.994,135.722 232.758,135.202 231.293,135.224C229.83,135.244 228.591,135.722 227.572,136.654C226.768,137.369 226.217,138.171 225.914,139.061C225.201,140.966 225.523,142.539 226.889,143.772C227.602,144.403 228.566,145.039 229.781,145.692C230.172,145.907 230.932,146.331 232.058,146.959C233.182,147.589 234.06,148.052 234.691,148.355C236.164,149.03 237.345,149.743 238.232,150.5C241.614,153.21 243.542,156.537 244.018,160.48C244.151,161.5 244.151,162.475 244.018,163.406C243.586,166.591 242.589,169.235 241.028,171.34C238.406,174.892 234.831,176.735 230.301,176.864Z" style="fill:white;"></path>                <path d="M138.815,231.329C138.597,231.329 138.272,231.285 137.84,231.197C137.256,231.068 136.917,230.753 136.832,230.255C136.746,229.823 136.703,229.498 136.703,229.28L136.703,185.007L136.898,184.195C137.027,183.804 137.3,183.534 137.71,183.383C137.969,183.295 138.165,183.25 138.294,183.25C138.465,183.25 138.724,183.243 139.059,183.22C139.396,183.198 139.63,183.187 139.757,183.187L157.277,183.187C157.905,183.187 158.392,183.209 158.739,183.25C159.714,183.383 160.201,183.892 160.201,184.779C160.201,184.867 160.215,185.013 160.237,185.219C160.257,185.426 160.268,185.592 160.268,185.721L160.268,189.722C160.268,190.025 160.227,190.446 160.141,190.989C160.009,191.661 159.607,192.06 158.935,192.193C158.392,192.278 157.993,192.322 157.735,192.322L156.143,192.322L152.728,192.193C150.472,192.148 149.348,192.193 149.348,192.322C149.128,192.322 148.822,192.344 148.421,192.385C148.018,192.43 147.732,192.451 147.558,192.451C146.716,192.496 146.184,193.049 145.966,194.11C145.878,194.542 145.826,194.922 145.804,195.247L145.804,199.832C145.804,200.006 145.84,200.259 145.92,200.595C145.991,200.931 146.03,201.121 146.03,201.163C146.203,202.008 146.671,202.476 147.429,202.561C148.145,202.649 148.696,202.691 149.087,202.691L154.548,202.691C154.892,202.691 155.426,202.735 156.143,202.82C156.812,202.864 157.214,203.266 157.343,204.024C157.429,204.456 157.472,204.836 157.472,205.161L157.472,209.418C157.472,209.592 157.44,209.848 157.376,210.182C157.313,210.52 157.277,210.708 157.277,210.751C157.233,211.25 156.9,211.564 156.269,211.693C155.922,211.781 155.39,211.826 154.678,211.826C154.094,211.826 153.259,211.836 152.174,211.856C151.092,211.881 150.276,211.889 149.74,211.889L148.208,211.889C148.123,211.889 147.817,211.955 147.3,212.085C146.583,212.214 146.16,212.616 146.03,213.288L145.903,214.23C145.856,214.403 145.826,215.023 145.804,216.083L145.804,229.054C145.804,229.486 145.782,229.823 145.738,230.06C145.608,230.734 145.221,231.133 144.568,231.263C144.394,231.307 144.124,231.329 143.755,231.329L138.815,231.329Z" style="fill:rgb(196,22,29);"></path>                <path d="M166.707,231.329C166.445,231.329 166.227,231.307 166.054,231.263C165.666,231.178 165.349,230.839 165.112,230.255C165.024,230.082 164.983,229.801 164.983,229.41L164.983,185.137C164.983,184.963 165.024,184.693 165.112,184.325C165.244,183.782 165.578,183.449 166.12,183.317C166.552,183.231 166.891,183.187 167.128,183.187L172.493,183.187C173.771,183.187 174.68,183.718 175.219,184.779L175.71,185.657C176.902,187.607 179.21,191.713 182.636,197.976C183.173,198.954 183.575,199.659 183.836,200.091C183.922,200.221 184.183,200.513 184.615,200.967C184.789,201.14 185.031,201.228 185.346,201.228C185.662,201.228 185.927,201.14 186.144,200.967C186.359,200.752 186.61,200.458 186.89,200.091C187.02,199.873 187.182,199.587 187.378,199.229C187.574,198.871 187.714,198.629 187.799,198.496C188.559,197.307 189.661,195.302 191.101,192.485C192.542,189.667 193.725,187.541 194.66,186.112L195.8,184.325C196.188,183.697 196.782,183.338 197.587,183.25L203.99,183.25C205.006,183.25 205.582,183.837 205.711,185.007C205.758,185.506 205.777,186.209 205.777,187.12L205.777,229.28C205.777,229.368 205.766,229.509 205.744,229.702C205.725,229.897 205.692,230.038 205.648,230.126C205.518,230.753 205.116,231.133 204.444,231.263C204.27,231.307 204.056,231.329 203.794,231.329L198.658,231.329C198.311,231.329 198.049,231.307 197.879,231.263C197.248,231.133 196.871,230.775 196.742,230.192C196.694,229.974 196.678,229.638 196.678,229.184C196.678,228.966 196.664,228.636 196.642,228.189C196.623,227.747 196.609,227.416 196.609,227.201L196.609,207.631C196.609,207.37 196.598,207.009 196.579,206.54C196.557,206.078 196.543,205.725 196.543,205.486C196.543,205.054 196.48,204.685 196.35,204.382C196.091,203.71 195.623,203.591 194.951,204.024C194.736,204.153 194.53,204.36 194.335,204.64C193.946,205.312 193.725,205.692 193.685,205.778L190.889,211.143C188.438,215.887 187.152,218.38 187.02,218.617L186.34,219.691C186.037,220.278 185.613,220.297 185.073,219.757C184.897,219.583 184.682,219.267 184.423,218.813C184.117,218.273 183.709,217.515 183.203,216.537C182.693,215.562 182.36,214.968 182.208,214.75C179.719,210.22 178.017,207.025 177.108,205.161C176.935,204.814 176.706,204.434 176.425,204.024C176.337,203.894 176.164,203.698 175.905,203.44C175.646,203.178 175.327,203.101 174.947,203.211C174.567,203.318 174.355,203.547 174.31,203.894C174.225,204.327 174.184,204.657 174.184,204.886C174.184,205.111 174.17,205.458 174.148,205.924C174.128,206.392 174.118,206.753 174.118,207.014L174.118,227.264L174.184,228.338C174.225,229.054 174.203,229.41 174.118,229.41L173.889,230.318C173.757,230.753 173.456,231.045 172.978,231.197C172.718,231.285 172.493,231.329 172.297,231.329L166.707,231.329Z" style="fill:rgb(196,22,29);"></path>                <path d="M68.203,208.21C69.01,208.603 69.981,208.268 70.375,207.46C70.5,207.205 70.55,206.932 70.536,206.664C70.505,206.692 70.475,206.717 70.442,206.745C70.347,206.827 70.252,206.901 70.147,206.968C70.122,206.981 70.098,206.987 70.07,207.001C69.957,207.089 69.845,207.177 69.73,207.265C69.649,207.329 69.55,207.359 69.448,207.359C69.329,207.447 69.202,207.527 69.071,207.596C68.638,207.824 68.208,207.452 68.195,207.095C68.167,207.053 68.142,207.011 68.126,206.959C68.046,206.7 68.142,206.397 68.39,206.26C68.412,206.246 68.437,206.238 68.459,206.227C68.52,206.183 68.588,206.147 68.66,206.128C68.715,206.081 68.773,206.04 68.842,206.007C69.037,205.91 69.252,205.844 69.472,205.833C69.481,205.833 69.486,205.835 69.494,205.835C69.621,205.704 69.747,205.569 69.874,205.436C69.797,205.381 69.715,205.332 69.627,205.285L69.563,205.257C68.757,204.864 67.785,205.197 67.393,206.007C66.996,206.813 67.333,207.785 68.14,208.18L68.203,208.21Z" style="fill:rgb(27,25,24);"></path>                <path d="M85.864,189.554L86.387,189.81L84.474,193.699L71.229,206.235C71.147,206.339 70.167,207.549 69.638,207.838C69.332,208.011 68.911,208.003 68.566,207.838C68.473,207.794 68.385,207.739 68.308,207.67C67.98,207.389 67.88,206.981 68.041,206.546C68.305,205.816 68.963,205.61 69.371,205.594L83.129,192.317C83.333,191.898 84.848,188.792 84.892,188.708L85.415,188.962L85.864,189.554Z" style="fill:rgb(219,219,218);"></path>                <path d="M69.597,206.186L69.463,206.177C69.401,206.174 68.803,206.155 68.588,206.747C68.517,206.951 68.547,207.105 68.688,207.226C68.864,207.381 69.178,207.424 69.357,207.329C69.679,207.15 70.414,206.32 70.803,205.838L69.597,206.186Z" style="fill:rgb(219,219,218);"></path>                <path d="M87.103,189.149C86.817,189.734 86.06,189.948 85.407,189.631C84.754,189.312 84.457,188.582 84.74,187.999L87.913,181.488C88.2,180.904 88.957,180.689 89.61,181.009C90.262,181.328 90.562,182.058 90.276,182.639L87.103,189.149Z" style="fill:rgb(27,25,24);"></path>                <path d="M90.078,181.576C89.926,181.885 89.555,182.011 89.246,181.863C88.935,181.711 88.808,181.336 88.96,181.028L88.998,180.946C89.149,180.637 89.522,180.511 89.83,180.659C90.141,180.81 90.268,181.182 90.119,181.491L90.078,181.576Z" style="fill:rgb(27,25,24);"></path>            </g>        </g>    </g></svg>