<svg width="682" height="927" viewBox="0 0 682 927" fill="none" xmlns="http://www.w3.org/2000/svg">
<g clip-path="url(#clip0_642_4724)">
<path d="M547 431.93C547 358.14 487.18 298.32 413.39 298.32C413.38 298.32 413.38 298.32 413.37 298.32H413L274.43 298.78L272.09 299V0H134.47V1.58H134.59V606H272.06V435.06L272.19 435.12V434.85H361.1C375.67 434.86 389.38 441.74 398.1 453.41C398.34 453.67 398.54 453.96 398.7 454.27C404.29 462.07 407.3 471.41 407.32 481L407.2 740.53H547.12L547 431.93Z" fill="#FF0036"/>
<path d="M680.89 926.22H0V764.61H680.89V926.22Z" fill="#F20034"/>
<path d="M138.32 781.77H163.74V826.92C165.21 825.02 166.8 823.21 168.5 821.52C170.25 819.79 172.19 818.26 174.27 816.96C176.45 815.6 178.81 814.54 181.27 813.81C184.09 812.99 187.02 812.6 189.96 812.64C199.66 812.64 207.16 815.6 212.45 821.51C217.74 827.42 220.39 835.56 220.39 845.92V903.92H195V853.82C195 847.82 193.67 843.27 191 840.16C188.33 837.05 184.54 835.52 179.63 835.55C174.73 835.55 170.86 837.09 168.01 840.16C165.16 843.23 163.74 847.79 163.75 853.82V903.94H138.32V781.77Z" fill="white"/>
<path d="M288 903.94C283.93 903.97 279.89 903.38 276 902.18C272.42 901.1 269.09 899.31 266.21 896.92C263.41 894.56 261.15 891.62 259.61 888.3C257.92 884.61 257.09 880.58 257.18 876.52V876.18C257.07 871.79 257.98 867.44 259.86 863.47C261.59 859.96 264.15 856.92 267.3 854.61C270.72 852.16 274.58 850.37 278.67 849.35C283.45 848.13 288.37 847.54 293.3 847.59C297.32 847.54 301.34 847.87 305.3 848.59C308.67 849.26 311.99 850.15 315.24 851.27V849.76C315.24 844.43 313.63 840.36 310.4 837.56C307.17 834.76 302.37 833.37 296 833.38C291.63 833.32 287.28 833.74 283 834.63C278.99 835.55 275.05 836.75 271.21 838.23L264.86 818.83C269.84 816.68 274.98 814.95 280.24 813.65C286.6 812.2 293.11 811.53 299.63 811.65C305.73 811.51 311.81 812.39 317.63 814.24C322.24 815.76 326.44 818.3 329.92 821.68C333.33 825.14 335.86 829.36 337.3 834C338.92 839.28 339.71 844.79 339.64 850.31V902.31H315.06V892.61C311.91 896.08 308.1 898.9 303.85 900.89C299.51 902.95 294.22 903.98 287.97 903.98M295.66 886.42C301.66 886.42 306.48 884.97 310.12 882.07C313.65 879.38 315.68 875.15 315.56 870.71V866.19C313.17 865.14 310.68 864.32 308.12 863.77C305.24 863.14 302.29 862.83 299.34 862.85C293.88 862.85 289.59 863.91 286.46 866.02C283.39 868.05 281.61 871.54 281.78 875.22V875.55C281.64 878.69 283.09 881.7 285.63 883.55C288.19 885.45 291.52 886.4 295.63 886.39" fill="white"/>
<path d="M452.16 781.88H477.58V846.92L507.34 814.32H537.77L503.66 849.6L538.94 903.94H509.85L486.44 867.32L477.58 876.68V903.94H452.16V781.88Z" fill="white"/>
<path d="M374.87 783.61H400.31V873.17C400.31 878.99 403.47 881.9 409.79 881.9H418.52V905.84H407.29C397.29 905.84 389.56 903.59 384.1 899.1C377.95 893.95 374.87 885.97 374.87 875.16V783.61Z" fill="white"/>
<path d="M680.89 764.61H0C0 764.61 59.9 774.41 138.32 787.51V781.77H163.74V791.77C202.84 798.33 245.16 805.48 286.22 812.51C290.68 811.91 295.17 811.62 299.67 811.65C305.77 811.51 311.85 812.39 317.67 814.24C321.29 815.46 324.67 817.29 327.67 819.65C343.99 822.48 359.82 825.25 374.87 827.91V783.61H400.31V832.42C419.74 835.9 437.31 839.12 452.16 841.94V781.88H477.58V846.88L507.34 814.28H537.77L503.66 849.6L506.3 853.6C602.13 878.81 680.89 926.17 680.89 926.17V764.61Z" fill="#FF5375"/>
<path d="M163.74 781.77H138.32V787.51L163.74 791.76V781.76" fill="white"/>
<path d="M299.67 811.64C295.17 811.61 290.68 811.9 286.22 812.5C300.22 814.9 314.12 817.29 327.67 819.64C324.67 817.28 321.29 815.45 317.67 814.23C311.85 812.38 305.77 811.5 299.67 811.64Z" fill="white"/>
<path d="M537.77 814.32H507.34L477.58 846.92C487.28 848.92 496.85 851.16 506.3 853.65L503.66 849.65L537.77 814.37M477.58 781.93H452.16V841.99C461.86 843.83 470.42 845.51 477.58 846.99V781.99" fill="white"/>
<path d="M400.31 783.61H374.87V827.9L400.31 832.42V783.61Z" fill="white"/>
<path d="M527.65 488.51C546.42 537.03 547.09 560.75 547.09 560.75C547.09 560.75 566 404 547.12 373.31C534.76 353.22 514 344 496.77 327.48C467.32 299.2 417.59 291.76 374.45 286.27C331.31 280.78 272.06 279.2 272.06 279.2V0H134.47C134.47 0 133.02 151 134.59 167.44C136.16 183.88 135.01 196.85 137 229.27C138.15 248.09 140.94 270.05 172.83 285.47C186.39 292.03 219.22 310.61 306.94 344.29C340.61 357.22 401.8 379.03 448.46 402.02C484.76 419.91 513.05 450.76 527.65 488.51Z" fill="#FF5277"/>
<path d="M407.3 481V739H1.56V1.58008H134.56V606H272.16V434.85H361.08C375.65 434.86 389.36 441.74 398.08 453.4C398.32 453.66 398.52 453.95 398.68 454.27C404.26 462.07 407.28 471.41 407.3 481Z" fill="url(#paint0_linear_642_4724)"/>
<path d="M407.3 481H406.3V738H2.56V2.58008H133.56V607H273.16V435.85H361.08C375.35 435.85 388.78 442.58 397.32 454C397.5 454.2 397.66 454.41 397.79 454.64V454.75L397.86 454.85C403.33 462.47 406.28 471.62 406.3 481H408.3C408.29 471.21 405.22 461.66 399.53 453.69L398.72 454.27L399.65 453.9C399.46 453.5 399.22 453.13 398.92 452.8C390 440.87 375.98 433.85 361.08 433.85H271.16V605H135.57V0.580078H0.559998V740H408.3V481H407.3Z" fill="white"/>
<path d="M681 431.92V739H548V432C547.99 358.21 488.17 298.39 414.38 298.4C414.36 298.4 414.35 298.4 414.33 298.4H414L273.21 298.86V165.71L413.53 165.31C560.82 164.88 680.57 283.93 681 431.22C681 431.45 681 431.69 681 431.92Z" fill="url(#paint1_linear_642_4724)"/>
<path d="M680 431.92H679V738H548V432C547.99 357.65 487.71 297.39 413.36 297.4C413.35 297.4 413.34 297.4 413.33 297.4H413L273.21 297.86V165.71H272.21V166.71L412.54 166.31H414C560.43 166.7 678.95 285.49 679 431.92H681C680.96 284.38 561.54 164.68 414 164.3H412.49L272.17 164.7V299.78L413 299.32H413.4C486.63 299.33 545.99 358.69 546 431.92V740H681V432L680 431.92Z" fill="white"/>
</g>
<defs>
<linearGradient id="paint0_linear_642_4724" x1="204.53" y1="-1.25476" x2="204.53" y2="736.135" gradientUnits="userSpaceOnUse">
<stop stop-color="white"/>
<stop offset="0.2" stop-color="white"/>
<stop offset="0.51" stop-color="#CCCCCC"/>
<stop offset="0.78" stop-color="white"/>
<stop offset="1" stop-color="#AEADAD"/>
</linearGradient>
<linearGradient id="paint1_linear_642_4724" x1="477.032" y1="167.783" x2="477.032" y2="741.443" gradientUnits="userSpaceOnUse">
<stop stop-color="white"/>
<stop offset="0.2" stop-color="white"/>
<stop offset="0.51" stop-color="#CCCCCC"/>
<stop offset="0.78" stop-color="white"/>
<stop offset="1" stop-color="#AEADAD"/>
</linearGradient>
<clipPath id="clip0_642_4724">
<rect width="681.03" height="926.22" fill="white"/>
</clipPath>
</defs>
</svg>
