<svg xmlns="http://www.w3.org/2000/svg" viewBox="-24 -24 379 379">
  <defs>
    <linearGradient id="pcradio-logo-blue-bar" x1="0" y1="165.57" x2="80.7" y2="165.57" gradientUnits="userSpaceOnUse">
      <stop offset="0" stop-color="#0099f0"/>
      <stop offset=".24" stop-color="#0092ec"/>
      <stop offset=".59" stop-color="#007ee3"/>
      <stop offset="1" stop-color="#0060d4"/>
    </linearGradient>
    <linearGradient id="pcradio-logo-blue-arc" x1="121.98" y1="42.63" x2="301.27" y2="223.71" gradientTransform="translate(-10.84 16.67) rotate(-.28)" gradientUnits="userSpaceOnUse">
      <stop offset="0" stop-color="#0099f0"/>
      <stop offset=".26" stop-color="#0094ee"/>
      <stop offset=".54" stop-color="#0087e9"/>
      <stop offset=".83" stop-color="#0071e0"/>
      <stop offset="1" stop-color="#0061da"/>
    </linearGradient>
    <linearGradient id="pcradio-logo-orange-arc" x1="332.08" y1="224.27" x2="148.77" y2="42.78" gradientTransform="translate(390.8 14.68) rotate(179.72) scale(1 -1)" gradientUnits="userSpaceOnUse">
      <stop offset="0" stop-color="#ff9a54"/>
      <stop offset="1" stop-color="#ffcb62"/>
    </linearGradient>
  </defs>
  <g>
    <path d="M54.26,331.13h-27.81c-15.49,0-27.66-15.17-26.35-32.83L20.33,27.67C21.49,12.02,32.94,0,46.67,0h0c14.27,0,25.97,12.96,26.43,29.28l7.59,270.63c.48,17.08-11.49,31.22-26.43,31.22Z" fill="url(#pcradio-logo-blue-bar)"/>
    <path d="M174.05,37.02c67.37-.31,122.26,49.62,122.6,111.52.33,61.9-54.01,112.32-121.38,112.63" fill="none" stroke="url(#pcradio-logo-blue-arc)" stroke-linecap="round" stroke-miterlimit="10" stroke-width="58"/>
    <path d="M177.23,37.02c-67.37.31-121.72,50.73-121.38,112.63.33,61.9,55.22,111.82,122.6,111.52" fill="none" stroke="url(#pcradio-logo-orange-arc)" stroke-linecap="round" stroke-miterlimit="10" stroke-width="62"/>
  </g>
</svg>
